<svg xmlns="http://www.w3.org/2000/svg" viewBox="0 0 2000 1556" xmlns:v="https://vecta.io/nano"><radialGradient id="A" cx="289.408" cy="1613.693" r="1621.788" gradientTransform="matrix(1.2461 0 0 -1 -63.8408 1827.4583)" gradientUnits="userSpaceOnUse"><stop offset="0" stop-color="#9dd5f6"/><stop offset=".071" stop-color="#98d3f5"/><stop offset=".158" stop-color="#89cef3"/><stop offset=".252" stop-color="#70c6ef"/><stop offset=".351" stop-color="#4ebbea"/><stop offset=".455" stop-color="#23ade3"/><stop offset=".5" stop-color="#0da6e0"/><stop offset="1" stop-color="#2e77bc"/></radialGradient><path d="M2070.4-89.3H-83.2v1734.5h2153.6v-572.4c8.6-9.9,12.8-22.6,12.8-38.1c0-17.8-4.2-28.8-12.8-38" fill="url(#A)"/><path d="M346 620.5l-33.2-81-33.1 81m798.7-32.3c-6.7 4.1-14.6 4.2-24 4.2h-59v-45.1h59.8c8.5 0 17.3.4 23 3.7 6.3 3 10.2 9.3 10.2 18 0 8.8-3.7 15.9-10 19.2zm421 32.3l-33.6-81-33.4 81h67zm-784.7 87.7h-49.8l-.2-159.2-70.4 159.2h-42.7L481 548.9v159.3h-98.8l-18.7-45.3H262.4l-18.9 45.3h-52.8l87-203.2h72.2l82.6 192.4V504.9h79.3l63.6 137.9 58.4-137.9h80.9v203.3h0zm198.4 0H750.8V504.9h162.3v42.3H799.4v36.6h111v41.7h-111v40.6h113.7v42.1zm228.8-148.5c0 32.4-21.6 49.1-34.2 54.2 10.6 4 19.7 11.2 24 17.1 6.9 10.1 8 19.1 8 37.3v39.9h-49l-.2-25.6c0-12.2 1.2-29.8-7.7-39.6-7.1-7.1-17.9-8.7-35.4-8.7h-52.1v73.9h-48.6V504.9h111.7c24.8 0 43.1.7 58.8 9.7 15.5 9.1 24.7 22.4 24.7 45.1zm77.8 148.5h-49.6V504.9h49.6v203.3zm575 0h-68.8l-92.1-152.5v152.5h-98.9l-18.9-45.3h-101l-18.3 45.3h-56.8c-23.6 0-53.5-5.2-70.4-22.5-17.1-17.3-26-40.6-26-77.6 0-30.1 5.3-57.7 26.2-79.5 15.7-16.2 40.3-23.7 73.8-23.7h47v43.5h-46c-17.7 0-27.7 2.6-37.4 12-8.3 8.6-14 24.7-14 46 0 21.8 4.3 37.5 13.4 47.7 7.5 8 21.1 10.5 33.9 10.5h21.8l68.5-159.8h72.8l82.2 192.2V504.9h74l85.4 141.5V504.9h49.8v203.3h-.2zM190.2 748.1h83l18.7-45.1h41.9l18.7 45.1h163.3v-34.5l14.6 34.7h84.8l14.6-35.2v35h405.8l-.2-74.1h7.9c5.5.2 7.1.7 7.1 9.8v64.3h209.9v-17.3c16.9 9.1 43.3 17.3 77.9 17.3h88.3l18.9-45.1h41.9l18.5 45.1H1676v-42.9l25.8 42.9H1838V464.6h-135v33.5l-18.9-33.5h-138.5v33.5l-17.4-33.5h-187c-31.3 0-58.8 4.4-81.1 16.5v-16.5H1131v16.5c-14.1-12.6-33.4-16.5-54.9-16.5H604.7L573 537.8l-32.5-73.2H392v33.5l-16.3-33.5H249l-58.8 134.8v148.7h0zM1706.4 898h-88.5c-8.8 0-14.7.3-19.7 3.7-5.1 3.3-7.1 8.2-7.1 14.6 0 7.7 4.3 12.9 10.6 15.1 5.1 1.8 10.6 2.3 18.7 2.3l26.3.7c26.6.7 44.3 5.2 55.1 16.4 2 1.5 3.1 3.3 4.5 5m.1 76.2c-11.8 17.3-34.8 26-65.9 26h-93.8v-43.6h93.4c9.3 0 15.8-1.2 19.7-5 3.4-3.1 5.7-7.7 5.7-13.3 0-5.9-2.4-10.6-5.9-13.4-3.5-3.1-8.6-4.5-17.1-4.5-45.6-1.5-102.5 1.4-102.5-62.9 0-29.5 18.7-60.5 69.7-60.5h96.8v-40.4h-89.9c-27.1 0-46.8 6.5-60.8 16.6v-16.6h-133c-21.3 0-46.2 5.3-58 16.6v-16.6h-237.5V831c-18.9-13.6-50.8-16.6-65.5-16.6H905.1V831c-15-14.5-48.2-16.6-68.5-16.6H661.3l-40.1 43.4-37.6-43.4H321.8V1098h256.9l41.3-44.1 38.9 44.1 158.4.1v-66.7h15.6c21 .3 45.8-.5 67.7-10v76.6h130.6v-74h6.3c8 0 8.8.3 8.8 8.4v65.5h396.8c25.2 0 51.5-6.4 66.1-18.2v18.2h125.9c26.2 0 51.8-3.7 71.2-13.1V1032h.1zm-193.8-81.2c9.5 9.8 14.5 22.1 14.5 43.1 0 43.7-27.3 64.1-76.3 64.1h-94.6v-43.6h94.2c9.2 0 15.7-1.2 19.8-5 3.3-3.1 5.7-7.7 5.7-13.3 0-5.9-2.6-10.6-5.9-13.4-3.7-3.1-8.8-4.5-17.3-4.5-45.4-1.5-102.3 1.4-102.3-62.9 0-29.5 18.5-60.5 69.5-60.5h97.4V898h-89.1c-8.8 0-14.6.3-19.5 3.7-5.3 3.3-7.3 8.2-7.3 14.6 0 7.7 4.5 12.9 10.6 15.1 5.1 1.8 10.6 2.3 18.9 2.3l26.1.7c26.5.7 44.6 5.2 55.6 16.4zm-438.3-12.6c-6.5 3.9-14.5 4.2-24 4.2h-59v-45.7h59.8c8.6 0 17.3.2 23.2 3.7 6.3 3.3 10.1 9.6 10.1 18.3-.1 8.7-3.8 15.7-10.1 19.5zm29.3 25.3c10.8 4 19.7 11.1 23.8 17.1 6.9 9.9 7.9 19.2 8 37.1v40.3h-48.8v-25.4c0-12.2 1.2-30.3-7.9-39.8-7.1-7.3-17.9-9-35.6-9h-51.9v74.2h-48.8V854.7h112.1c24.6 0 42.5 1.1 58.4 9.6 15.3 9.3 25 21.9 25 45.1.1 32.5-21.5 49.1-34.3 54.1zm61.4-108.8h162.1v42h-113.8v37h111v41.5h-111v40.4l113.8.2v42.2H1165V854.7zm-327.8 93.8h-62.8v-51.8h63.3c17.5 0 29.7 7.1 29.7 24.9.1 17.7-11.5 26.9-30.2 26.9zm-111.1 91l-74.6-82.8 74.6-80.2v163zm-192.6-23.9H414v-40.4h106.6v-41.5H414v-37h121.8L589 956l-55.5 59.6zm386.2-93.9c0 56.5-42.1 68.1-84.6 68.1h-60.6v68.2H680l-59.8-67.3L558 1058H365.6V854.7H561l59.8 66.6 61.8-66.6h155.2c38.5 0 81.9 10.7 81.9 67z" fill="#fff"/></svg>