<svg xmlns="http://www.w3.org/2000/svg" viewBox="0 0 652 652" xmlns:v="https://vecta.io/nano"><path d="M62.9 255.1h52.4c7.3 0 11.9 6 10.1 13.3L101 373.2c-1.7 7.3-9 13.3-16.4 13.3H32.3c-7.3 0-11.8-6-10.1-13.3l24.4-104.8c1.7-7.3 9-13.3 16.3-13.3" fill="#df3232"/><path d="M111 255.1h60.3c7.3 0 4 6 2.3 13.3l-24.4 104.8c-1.7 7.3-1.2 13.3-8.5 13.3H80.4c-7.3 0-11.9-6-10.2-13.3l24.4-104.8c1.7-7.3 9-13.3 16.4-13.3" fill="#004889"/><path d="M168.9 255.1h52.4c7.3 0 11.9 6 10.2 13.3L207 373.2c-1.7 7.3-9 13.3-16.4 13.3h-52.4c-7.3 0-11.9-6-10.2-13.3l24.4-104.8c1.8-7.3 9.1-13.3 16.5-13.3" fill="#008089"/><g fill="#fff"><path d="M160.1 353.7h4.9l1.5-4.7h-5l-1.4 4.7zm4-13.2l-1.7 5.6s1.9-1 2.9-1.3l2.6-.4 1.2-3.9h-5zm2.4-8l-1.6 5.4 2.8-1.1c1-.3 2.5-.4 2.5-.4l1.2-3.9h-4.9zm11 0l-6.4 21.1h1.7l-1.3 4.4h-1.7l-.4 1.4h-6.1l.4-1.4h-12.4l1.3-4h1.2l6.5-21.5 1.3-4.3h6.2l-.7 2.2s1.7-1.2 3.2-1.6c1.6-.4 10.6-.6 10.6-.6l-1.3 4.3h-2.1z" fill-rule="evenodd"/><path d="M180.2 328.2h6.6l.1 2.5c0 .4.3.6 1.1.6h1.4l-1.2 4.1h-3.6c-3.1.2-4.3-1.1-4.2-2.6l-.2-4.6zm.9 19.3h-6.3l1.1-3.6h7.2l1-3.3H177l1.2-4.1H198l-1.2 4.1h-6.6l-1.1 3.3h6.7l-1.1 3.6h-7.2l-1.3 1.5h2.9l.7 4.6c.1.5.1.7.2.9s1 .3 1.5.3h.9l-1.3 4.4h-2.2-1.6c-.7-.1-1.1-.5-1.6-.7-.4-.2-1-.7-1.2-1.6l-.7-4.6-3.3 4.5c-1 1.4-2.4 2.5-4.8 2.5h-4.6l1.2-4h1.8c.5 0 .9-.2 1.3-.4.3-.1.6-.3 1-.8l4.7-6.6zm-69.1-9.9h16.7l-1.2 4h-6.7l-1 3.4h6.8l-1.2 4.1h-6.8l-1.7 5.5c-.2.6 1.6.7 2.3.7l3.4-.5-1.4 4.6h-7.7c-.6 0-1.1-.1-1.8-.2-.6-.1-.9-.5-1.2-.9-.3-.5-.7-.8-.4-1.8l2.2-7.3h-3.8l1.2-4.2h3.8l1-3.4h-3.8l1.3-4zm11.2-7.2h6.8l-1.2 4.2h-9.4l-1 .9c-.4.4-.6.3-1.2.5-.5.3-1.6.8-3.1.8h-3l1.2-4h.9c.8 0 1.3-.1 1.5-.2.3-.2.6-.6 1-1.3l1.7-3.1h6.8l-1 2.2z"/><path d="M136.4 337.3s1.9-1.7 5.1-2.3c.7-.1 5.3-.1 5.3-.1l.7-2.3h-9.7l-1.4 4.7zm9 1.7h-9.6l-.6 1.9h8.3c1-.1 1.2 0 1.3 0l.6-1.9zM133 328.2h5.8l-.8 2.9s1.8-1.5 3.1-2 4.2-.9 4.2-.9h9.4l-3.2 10.7c-.6 1.8-1.2 3-1.6 3.6s-.8 1-1.6 1.5c-.8.4-1.5.7-2.2.7-.6.1-1.6.1-2.9.1h-9.1l-2.6 8.5c-.2.8-.4 1.2-.2 1.5.1.2.4.4.9.4l4-.4-1.4 4.7h-4.5c-1.4 0-2.5 0-3.2-.1s-1.4 0-1.9-.4c-.4-.4-1-.9-1-1.4s.2-1.2.5-2.3l8.3-27.1z" fill-rule="evenodd"/><path d="M150 345.5l-.5 2.6c-.2.8-.4 1.4-1.1 1.9-.6.5-1.4 1.1-3.1 1.1l-3.2.2v2.9c0 .8.2.7.3.9.2.2.3.2.4.3l1-.1 3.1-.2-1.3 4.3H142c-2.5 0-4.3-.1-4.9-.6-.6-.4-.7-.9-.7-1.7l.2-11.3h5.7l-.1 2.3h1.4c.4 0 .8-.1 1-.2s.3-.3.4-.6l.6-1.8h4.4zm-80.9-56.9l-3.8 17.7c-.8 3.4-1.4 5.8-3.3 7.4-1.1.9-2.4 1.3-3.9 1.3-2.4 0-3.8-1.2-4-3.4l-.1-.8.7-4.6 4.5-17.3c0-.1.1-.2.1-.2-7.4.1-8.8 0-8.8-.1 0 .2-.2 1.1-.2 1.1l-3.9 17.2-.3 1.5-.6 4.8c0 1.4.3 2.6.8 3.6 1.8 3.1 6.8 3.6 9.7 3.6 3.7 0 7.1-.8 9.5-2.2 4.1-2.4 5.1-6.2 6.1-9.5l.4-1.7 4.6-18v-.2l-7.5-.2m21.8 31.5l-6.7.1-.1-.2.8-3.5.4-1.6 1.2-6.3c.1-.5.2-1.9-1.3-1.9-.6 0-1.3.3-2 .6-.4 1.3-1.1 5-1.5 6.8l-1.2 5.8-.2.2-6.8.1-.1-.3 1.5-6.4c1.3-5.8 1.6-8 2-10.9l.2-.2c3-.4 3.8-.5 7.1-1.2l.3.3-.5 1.8c.5-.3 1.1-.6 1.6-.9 1.6-.8 3.3-1 4.3-1 1.4 0 3 .4 3.7 2.1.6 1.5.2 3.3-.6 7l-.4 1.8c-.8 4-1 4.8-1.4 7.5l-.3.3zm10.7 0H98l-3.4.1-.1-.1-.1-.1.8-2.6c.2-.5.4-1.1.7-2.6l1-4.7.5-3.4.1-.1.1-.1 3.6-.5c1-.1 2.1-.3 3.7-.7l.1.1v.1l-.9 3.8-.9 3.8-1 4.4-.4 2.4-.1.1-.1.1zm16.8-9.3c-.2.7-.7 3.2-1.6 4.3-.6.8-1.2 1.3-2 1.3-.2 0-1.5 0-1.5-1.9 0-1 .2-1.9.4-3 .7-3.1 1.5-5.6 3.6-5.6 1.7-.2 1.8 1.8 1.1 4.9m6.9.2c.9-4 .2-5.9-.7-7.1-1.4-1.8-3.8-2.3-6.3-2.3-1.5 0-5.1.1-7.9 2.7-2 1.9-3 4.4-3.5 6.8-.6 2.5-1.2 6.9 2.9 8.6 1.3.5 3.1.7 4.3.7 3 0 6.1-.8 8.4-3.3 1.7-1.9 2.5-4.9 2.8-6.1m64.4 9.4l-7.1.1-.2-.2 2.3-9.1 1.4-8 .2-.2 7.3-1.2.1.3-1.8 7.5c-1.2 5.2-1.6 7.9-2.1 10.6l-.1.2z"/><path d="M184.9 311.1c-.2.6-.8 3.2-1.6 4.3-.5.8-1.8 1.2-2.6 1.2-.2 0-1.5 0-1.5-1.9 0-.9.2-1.9.4-3 .7-3 1.5-5.6 3.6-5.6 1.7 0 2.5 1.9 1.7 5m6.3.3c.9-4-2.8-.4-3.4-1.7-.9-2.1-.4-6.3-4-7.7-1.4-.5-4.7.2-7.6 2.7-2 1.9-3 4.4-3.5 6.8-.6 2.4-1.2 6.9 2.9 8.5 1.3.5 2.5.7 3.6.7 4.1-.2 7.3-6.4 9.6-8.9 1.9-1.9 2.2.8 2.4-.4m-47.9 8.7l-6.6.1-.1-.2.8-3.5.4-1.6 1.2-6.3c.1-.5.2-1.9-1.3-1.9-.6 0-1.3.3-2 .6-.4 1.3-1.1 5-1.5 6.8l-1.1 5.8-.2.2-6.8.1-.1-.3 1.5-6.4c1.3-5.8 1.6-8 2-10.9l.2-.2c3-.4 3.8-.5 7.1-1.2l.3.3-.5 1.8c.5-.3 1.1-.6 1.6-.9a9.98 9.98 0 0 1 4.2-1c1.4 0 3 .4 3.7 2.1.6 1.5.2 3.3-.6 7l-.4 1.8c-.9 4-1 4.8-1.5 7.5l-.3.3z"/><path d="M166.1 288.5h-2.2c-5.7.1-8 0-8.9-.1l-.3 1.2-2 9.5-5.1 21.1h7.8l1.4-6.6 1-4.3s.3-.4.6-.6h.4c4.3 0 9.2 0 13-2.8 2.6-1.9 4.3-4.8 5.1-8.2.2-.8.4-1.8.4-2.9 0-1.3-.3-2.6-1-3.6-1.9-2.6-5.7-2.6-10.2-2.7m2.9 9.9c-.5 2.1-1.8 3.9-3.6 4.7-1.4.7-3.2.8-5 .8h-1.2l.1-.5 2.2-9.4.1-.5v-.4l.9.1 4.6.4c1.7.7 2.4 2.5 1.9 4.8m46.8 3.4l-.3-.3-6.8 1.2-.2.2v.1h0c-2.2 5.1-2.2 4-4 8.1v-.5l-.4-8.8-.3-.3-6.6 1.2-.2.2c0 .1 0 .2-.1.3h0c.4 2 .3 1.6.7 4.7l.6 4.7.9 7.7-4.7 7.9.1.3 6.1-.1.5-.6c1.6-3.5 14.7-26 14.7-26m-111.3 2.1c1.8-1.2 2-2.9.5-3.7-1.5-.9-4.1-.6-5.9.6s-2 2.9-.5 3.8c1.5.8 4.1.5 5.9-.7"/><path d="M200.7 328.2l-2.6 4.4c-.8 1.5-2.3 2.6-4.7 2.6h-4.1l1.2-4h.8c.4 0 .7 0 1-.1.2-.1.4-.2.5-.5l1.5-2.4h6.4z"/></g><g fill="#4c4948"><path d="M375.9 289.2c5.4 0 9.8-4.2 10.1-9.5.1-1.8-.5-3.5-1.6-4.7-1.2-1.3-3-1.9-5-1.9-5.3 0-9.7 4.1-10 9.5-.1 1.8.5 3.5 1.6 4.7 1.2 1.3 3 1.9 4.9 1.9m-96 69.3c-3.8 0-6.5 1.3-9.1 4.4l-.6-3.9h-5.8v.4c-.3 1.8-.5 3.7-1 5.6l-5 20.1h7.8l3.7-14.7c.6-2.4 2.2-6.3 6.2-6.3 1.9 0 2.9.9 2.8 2.9 0 .8-.2 1.5-.5 2.4l-3.2 12.2-1 3.6h8.1l4.3-17c.2-1 .4-2 .4-2.9.2-4.4-2.5-6.8-7.1-6.8m101.3 0c-3.8 0-6.5 1.3-9.1 4.4l-.6-3.9h-5.8v.4c-.3 1.8-.6 3.7-1 5.6l-5 20.1h7.9l3.7-14.7c.6-2.4 2.2-6.3 6.2-6.3 2 0 2.9.9 2.8 2.9 0 .8-.3 1.5-.5 2.4l-3.2 12.2-1 3.6h8l4.3-17c.2-1 .4-2 .4-2.9.2-4.4-2.5-6.8-7.1-6.8m126.1-.2c-3.8 0-6.5 1.3-9.1 4.4l-.6-3.9h-5.8v.4c-.3 1.8-.6 3.7-1 5.6l-5 20.1h7.9l3.7-14.7c.6-2.3 2.2-6.3 6.1-6.3 2 0 2.9.9 2.8 2.9 0 .8-.2 1.5-.5 2.4l-3.2 12.2-1 3.6h8.1l4.3-17c.2-1 .4-2 .4-2.9.1-4.3-2.6-6.8-7.1-6.8m-97.7-.5c-8.8 0-18.7 7.2-19.1 18.8-.2 5.2 2.5 8.5 7.1 8.5 3.4 0 6.3-1.7 8.5-5.2-.1 2.3.5 3.9 1.9 4.6h.1 4.3l.1-.4c.1-2.6.6-5.6 1.4-8.9l3.8-16.1-.3-.1c-1.6-.7-5.1-1.2-7.8-1.2m-1.4 11.1c-1.5 6.1-4.7 10.6-7.6 10.6-1.8 0-2.7-1.2-2.6-3.7.2-6.5 5.1-12.5 10.2-12.5.4 0 .9 0 1.4.2l-1.4 5.4zm127.9-11.2c-8.8 0-18.7 7.2-19.1 18.8-.2 5.2 2.5 8.5 7.1 8.5 3.4 0 6.3-1.7 8.5-5.2-.1 2.3.5 3.8 1.9 4.6h.1 4.3v-.4c.2-2.6.6-5.6 1.4-8.9l3.8-16.1-.3-.1c-1.5-.7-4.9-1.2-7.7-1.2m-1.4 11.2c-1.5 6.1-4.7 10.6-7.6 10.6-1.9 0-2.7-1.2-2.6-3.7.2-6.6 5.1-12.5 10.2-12.5.4 0 .9 0 1.4.2l-1.4 5.4zm-232-5.1h6.8l1.1-4.5h-6.8l2.2-10.5h-4.5l-5.3 10.5h-4.1l-1.1 4.5h4.1-3 3l-3.4 14.1c-1.4 5.8 2.4 7.5 7.2 7.4 3.4 0 5.2-.3 6.8-.6l.6-4c-1 0-2.6.1-4.2-.2-2.2-.5-3.1-1.5-2.4-4.3l3-12.4zm24-5.1c-6.9 0-14.1 5.2-16.1 13.5-1.9 8.2 2.2 13.2 10 13.2 7 0 9.3-1.3 11.2-2l-.5-4.2c-1.1.5-3.2 1.2-6.8 1.2-5.6 0-7.2-3.1-6.3-7.2l17.2-.1c2.5-10.2-2.3-14.5-8.7-14.4m1.8 10.1h-9.1c1.1-2.8 2.9-5.1 5.7-5.1 2.9 0 3.7 1.8 3.4 5.1m29.7-10.2c-3.3 0-6.8 3.3-7.9 4.4l.7-3.8h-7.1l-6.1 25.5h7.5l4.2-17.6c1.2-.8 3.7-2.6 5.8-2.6 1.5 0 2.6.4 3.1.7l4-5.4c-.6-.4-1.9-1.2-4.2-1.2m77.4-10.1h-4.5l-5.3 10.5h-4.1l-1 4.5h4.1l-3.4 14.2c-1.5 5.8 2.4 7.5 7.1 7.4 3.4 0 5.2-.3 6.8-.6l.6-4c-1 0-2.6 0-4.2-.2-2.2-.5-3.1-1.5-2.4-4.3l3-12.5h6.8l1.1-4.5h-6.8l2.2-10.5zm37.8 9.8c-7.7 0-15.7 5.2-17.6 13.4S459.4 385 467 385c7.7 0 15.7-5.2 17.6-13.4 2-8.2-3.5-13.4-11.2-13.3m3.2 13.3c-1 4.4-4.6 8.3-8.3 8.3-4.5 0-5.5-3.9-4.5-8.3 1.1-4.4 3.9-8.3 8.4-8.3 3.8 0 5.5 3.9 4.4 8.3m-152.4-33.9l5.8-25c.9-4 3.5-10.7 10.2-10.7 3.3 0 4.9 1.6 4.8 4.8 0 1.3-.4 2.6-.7 4l-4.9 20.7-1.6 6.1h13.6l6.6-28.8c.4-1.7.6-3.4.6-5 .1-7-4.4-11.2-12.2-11.2-6.4 0-10.9 2.2-15.2 7.5l-1.2-6.6h-9.7l-.1.6c-.4 3-.8 6.3-1.6 9.5l-7.8 34.1h13.4z"/><path d="M446.7 312.7c.9-4 3.5-10.7 10.2-10.7 3.3 0 4.9 1.6 4.8 4.8 0 1.3-.3 2.6-.7 4l-4.9 20.8-1.4 6.1h13.4l6.6-28.8c.4-1.7.6-3.4.6-5 .1-7-4.4-11.2-12.1-11.2-6.4 0-10.9 2.2-15.2 7.5l-1.2-6.6h-9.7l-.1.6c-.4 3-.8 6.3-1.6 9.5l-7.8 34.1h13.3l5.8-25.1zm-37.2-20c-16.7 0-28.5 12.2-28.9 29.7-.2 11.2 9.2 16.2 18.5 16.2 16.3 0 28.5-12.6 28.8-29.8.3-11.1-9-16.1-18.4-16.1m-8.4 36.6c-4.6 0-6.8-2.7-6.6-8.2.1-6.9 4.5-19.1 12.9-19.1 5.9 0 7.1 4.4 7 8.2-.2 6.5-5 19.1-13.3 19.1m135.1 9.4c6.3 0 11.5-2.9 15.6-8.8-.2 3.8 1.1 6.5 3.7 7.8l.1.1h8v-.7c.2-4.5 1-9.5 2.3-15l6.5-27.2-.6-.2c-3-1.1-9.4-2-14.5-2-16.4 0-34.3 12.1-34.7 31.7.1 8.8 5.2 14.3 13.6 14.3m18.9-36.8c.7 0 1.7 0 2.6.3l-2.3 9.3c-2.6 10.3-8.4 17.9-13.7 17.9-3.4 0-5.1-2.1-5-6.3.2-11.1 9-21.2 18.4-21.2m-61.9 14.4h10.3c12.3 0 25.2-9 25.5-24.6.2-8.5-7-15.1-16.4-15.1h-24l-12.9 54.9-1.3 6.1h14l4.8-21.3zm7-29.9h6.1c4.3 0 8.8 2.3 8.7 6.5-.1 7.8-5.7 13.6-16.2 13.6h-3.4l4.8-20.1zm-219.3 52.1c15.9 0 25.4-7.5 29-22.9l9-39.3h-14.1l-.9 4.4c-.1.6-8 34.5-8.1 34.9-1.9 8.3-6.3 12.5-13 12.5-6.1 0-9.9-2.9-9.8-7.5 0-1.4.2-2.8.7-4.7l9.1-39.5h-14l-.8 4.1-8.3 35.5c-.4 2.1-.7 4.1-.7 6.2-.2 12 11.2 16.3 21.9 16.3m89.7-.7l10.2-44.3h-13.3l-9 38.2-1.5 6.1zm69.7 46.6h7.5l6.1-25.5h-7.5zm12.4-37.2c-3.1 0-5.6 2.4-5.7 5.4-.1 1 .3 2 .9 2.7.7.7 1.7 1.1 2.8 1.1a5.8 5.8 0 0 0 5.8-5.4c.1-1-.3-2-.9-2.7-.7-.7-1.7-1.1-2.9-1.1m-199.9-.9l-9.8 38.6h8.6l9.2-38.6zm354.8-52.6L592 325l-1.2-31.3h-13.9l4.1 45.7c-2.5 10.2-10.9 9.1-16.1 9.1h-2.3-7.2c-.6 0-1.6.3-2.1 1.4l-1.6 6.9-6.5 27.3h7.5l5.6-23.8c.2-.6.8-1.1 1.5-1.1h9.8c13.8 0 19.1-7.4 23.7-15.5l28.4-50h-14.1z"/></g></svg>