<svg xmlns="http://www.w3.org/2000/svg" viewBox="0 0 2000 1556" xmlns:v="https://vecta.io/nano"><g fill="#1d1d1b"><path d="M1951.5 771c0-4.4 1.6-8.1 4.6-11.2 3.1-3.1 6.8-4.6 11.2-4.6 4.3 0 8 1.5 11.1 4.6s4.6 6.8 4.6 11.2c0 4.3-1.6 8-4.6 11.1-3.1 3.1-6.8 4.6-11.1 4.6s-8.1-1.5-11.2-4.6c-3.1-3-4.6-6.7-4.6-11.1zm15.8-13.6c-3.8 0-7 1.3-9.6 4s-3.9 5.9-3.9 9.6c0 3.8 1.3 6.9 3.9 9.6 2.6 2.6 5.8 3.9 9.6 3.9 3.7 0 6.9-1.3 9.6-4 2.6-2.7 4-5.8 4-9.5 0-3.8-1.3-7-4-9.6s-5.9-4-9.6-4zm-6.5 5h6.2c2.2 0 4 .4 5.2 1.2s1.9 2 1.9 3.5c0 1-.4 2-1.1 2.9s-1.6 1.4-2.7 1.7l3.7 7.9h-3.1l-3.4-7.5h-3.6v7.5h-3v-17.2zm2.9 2.2v5.3h4c1 0 1.9-.2 2.4-.7.6-.5.9-1.1.9-2s-.4-1.6-1.1-2-1.8-.6-3.4-.6h-2.8zm-34.6 133.6c-6 8.4-12.1 14.9-18.2 19.6s-11.5 7.1-16.2 7.1c-3.5 0-6.2-1-8.3-3-2-2-3.1-4.8-3.1-8.3 0-3.9 1.6-11.8 4.9-23.5l.3-1.3 28.9-106.4c.3-1.2.5-2.3.7-3.3.1-1 .2-2 .2-2.8 0-3.4-.9-5.7-2.8-6.9s-5.7-1.9-11.7-2l.3-4.1c10.1-1.1 20.3-2.7 30.5-4.7 2.7-.5 4.2-.8 4.6-.8.9 0 1.6.2 2 .5s.7.8.7 1.5c0 .6-.1 1.3-.2 2.1s-.4 1.6-.7 2.5l-35.9 129.8c-.7 2.7-1.3 5.1-1.7 7.2-.4 2.2-.6 3.6-.6 4.3 0 1.8.3 3.1 1.1 3.9.7.8 1.7 1.3 3.1 1.3 2.2 0 4.7-1.2 7.4-3.6s6.4-6.5 11-12.6l3.7 3.5zm-53.5.2c-6.2 8.9-12 15.6-17.5 20.2s-10.5 6.8-15 6.8c-3 0-5.3-.9-6.9-2.6s-2.4-4.4-2.4-7.8c0-2.2.5-5.6 1.6-10.2s3.1-11.9 6.1-21.9c-9.2 15.3-17.5 26.2-25 32.7-7.5 6.6-15.1 9.8-22.8 9.8-6.1 0-10.8-2.1-14.1-6.4s-5-10.3-5-18.2c0-9.4 1.8-19.1 5.4-29.1a102.62 102.62 0 0 1 15-27.6c7-9 14.1-15.9 21.6-20.6 7.4-4.7 14.8-7 22.1-7 4.6 0 8.3 1 11.3 3.1 2.9 2.1 4.8 5 5.6 8.8l2.9-9.9h17.3l-20.6 73.6-2.4 9.6c-.6 2.6-.8 4.6-.8 6 0 .8.4 1.5 1.1 2.2.7.6 1.7.9 2.8.9 1.7 0 3.8-1.2 6.4-3.6s5.9-6.3 10.1-11.7l3.2 2.9zm-36.4-75.8c-5.2 0-10.3 2-15.2 6-5 4-9.7 10.1-14.1 18.1-4.7 8.5-8.3 17.2-11 26.3s-4 17.4-4 24.9c0 4.3.9 7.6 2.6 10.1 1.7 2.4 4.1 3.6 7.1 3.6 4.2 0 8.6-2.1 13.3-6.2 4.6-4.1 9.7-10.5 15.1-19.2 5.7-9 10.1-17.7 13.1-26.3 3.1-8.6 4.6-16.3 4.6-23.2 0-4.7-1-8.2-3-10.6-1.8-2.3-4.7-3.5-8.5-3.5zm-180.9 100.7l21.9-74 2.2-8.4c.5-2.4.7-4.3.7-5.7 0-2.6-1-4.6-2.9-5.7-2-1.1-5.4-1.7-10.2-1.7h-1.9l.7-4.1a272.49 272.49 0 0 0 33.7-5.7c2.2-.5 3.5-.8 3.9-.8s.8.1.9.4c.2.3.3.9.3 1.8-.1.2-.2.6-.3 1.3-.1.6-.4 1.6-.9 3l-12.7 40.5c10.9-15 21.3-26.5 31.3-34.6 10-8 18.8-12 26.4-12 4.2 0 7.5 1.1 9.8 3.2s3.4 5.2 3.4 9.2c0 2.5-.3 5.4-.8 8.6-.6 3.2-1.4 6.6-2.4 10.3l-13 44.6c-1.1 3.8-1.9 6.6-2.3 8.5s-.6 3.4-.6 4.6c0 1.7.4 3 1.2 3.9s2 1.4 3.5 1.4c2.3 0 4.9-1.6 7.7-4.7 2.9-3.1 6.2-8 9.9-14.6l3.6 2.7c-5.6 10.5-11.2 18.3-16.7 23.4s-11.2 7.6-17.1 7.6c-3.5 0-6.3-1.1-8.4-3.3-2-2.2-3.1-5.2-3.1-9.1 0-1.7.3-3.9.8-6.5.5-2.7 1.3-5.9 2.5-9.8l11.9-43.7c1-4.1 1.8-7.4 2.2-9.8s.7-4.3.7-5.8c0-2.4-.5-4.2-1.4-5.3-1-1.1-2.4-1.7-4.4-1.7-3.7 0-8.4 2.3-14.1 6.8s-11.7 10.9-18.3 19.1c-6.4 8.1-11.8 17.1-16.3 27.1s-8.9 23-13 39.2h-18.4zm-107-34.5c0-7.6 1.6-15.3 4.8-23.1s7.8-15.2 13.9-22.2c7.5-8.7 15.7-15.4 24.5-20.2 8.9-4.8 17.7-7.2 26.3-7.2 11.6 0 20.8 3.4 27.7 10.2s10.3 15.8 10.3 27.2c0 7.3-1.6 14.8-4.7 22.5-3.1 7.8-7.5 15.2-13.2 22.1-7.4 8.9-15.7 15.8-24.8 20.7s-18.4 7.3-27.7 7.3c-11.2 0-20.2-3.4-26.9-10.2-6.8-6.8-10.2-15.8-10.2-27.1zm68.2-66.6c-5.6 0-11.3 2.1-17 6.4s-11 10.3-15.9 18.2c-4.6 7.5-8.2 15.6-10.9 24.3s-4 16.8-4 24.2c0 7.7 1.7 13.7 5.1 17.9 3.3 4.3 8.1 6.4 14.3 6.4 4.9 0 9.8-1.5 14.8-4.6s9.5-7.4 13.6-12.9c5.9-7.9 10.6-16.9 14.1-27.2 3.6-10.3 5.4-19.6 5.4-28 0-8-1.6-14.1-4.9-18.3-3.5-4.3-8.3-6.4-14.6-6.4zm-112.1 4.3l.9-3.9c10.8-1.3 21.3-3 31.6-5.3 2.1-.5 3.3-.8 3.6-.8.7 0 1.3.3 1.8.8a3.22 3.22 0 0 1 .7 2c0 .5-.1 1.1-.2 1.7s-.4 1.4-.7 2.4l-21.9 72.8c-.6 2.2-1 3.9-1.3 5.4a17.13 17.13 0 0 0-.4 3.6c0 2.1.4 3.8 1.3 4.9s2 1.7 3.5 1.7c2.2 0 5.1-1.5 8.5-4.6s7.1-7.4 11-12.9l3.4 3.4c-6.4 9.1-12.6 16-18.8 20.7-6.1 4.7-12 7.1-17.5 7.1-3.6 0-6.4-1-8.3-3.2-1.9-2.1-2.8-5.2-2.8-9.3 0-2.1.3-4.5.8-7.4.6-2.8 1.6-6.8 3.1-12l14.6-51.6.1-.3c1-3.8 1.5-6.2 1.5-7.4 0-2.9-1.1-4.9-3.2-6.1-2.3-1.1-6-1.7-11.3-1.7zm23.9-48.1c0-3 1.2-5.7 3.6-8.1s5.1-3.6 8-3.6c3.2 0 5.9 1.2 8.3 3.5 2.3 2.3 3.5 5.1 3.5 8.3 0 3.3-1.1 6.1-3.4 8.3-2.2 2.2-5 3.3-8.4 3.3-3.1 0-5.8-1.1-8.1-3.4-2.3-2.4-3.5-5.1-3.5-8.3z"/><path d="M1453.7 827.7l1-4.8c7-1.3 13.6-4.6 20-9.9s12.5-12.8 18.4-22.5h5.2l-8.6 29.8h19.3l-1.8 7.4h-19.3l-18 67.9c-.7 2.4-1.2 4.6-1.6 6.5s-.6 3.4-.6 4.5c0 1.5.4 2.7 1.2 3.6a3.74 3.74 0 0 0 2.9 1.3c2 0 4.4-1.3 7.3-4s6.4-6.8 10.4-12.4l3.4 3.9c-6.1 8.7-12 15.1-17.7 19.4-5.7 4.2-11.2 6.3-16.7 6.3-3.6 0-6.4-1-8.2-2.9s-2.7-4.8-2.7-8.7c0-1.7.1-3.5.4-5.5s.8-4 1.4-6.2l19.8-73.7h-15.5zm-14.8 70.7c-6.2 8.9-12 15.6-17.5 20.2s-10.5 6.8-15 6.8c-3 0-5.3-.9-6.9-2.6s-2.4-4.4-2.4-7.8c0-2.2.5-5.6 1.6-10.2s3.1-11.9 6.2-21.9c-9.2 15.3-17.5 26.2-25 32.7-7.5 6.6-15.1 9.8-22.8 9.8-6.1 0-10.8-2.1-14.1-6.4s-5-10.3-5-18.2c0-9.4 1.8-19.1 5.4-29.1a102.62 102.62 0 0 1 15-27.6c7-9 14.1-15.9 21.6-20.6 7.4-4.7 14.8-7 22.1-7 4.6 0 8.3 1 11.3 3.1 2.9 2.1 4.8 5 5.6 8.8l2.9-9.9h17.3l-20.6 73.6-2.4 9.6c-.6 2.6-.8 4.6-.8 6 0 .8.4 1.5 1.1 2.2.7.6 1.7.9 2.8.9 1.7 0 3.9-1.2 6.4-3.6 2.6-2.4 6-6.3 10.1-11.7l3.1 2.9zm-36.4-75.8c-5.2 0-10.3 2-15.2 6-5 4-9.6 10.1-14.1 18.1-4.7 8.5-8.3 17.2-11 26.3s-4 17.4-4 24.9c0 4.3.9 7.6 2.6 10.1 1.7 2.4 4.1 3.6 7.2 3.6 4.2 0 8.6-2.1 13.3-6.2 4.6-4.1 9.7-10.5 15.1-19.2 5.7-9 10.1-17.7 13.1-26.3 3.1-8.6 4.6-16.3 4.6-23.2 0-4.7-1-8.2-3-10.6-1.9-2.3-4.8-3.5-8.6-3.5zm-180.9 100.7l21.9-74 2.2-8.4c.5-2.4.7-4.3.7-5.7 0-2.6-1-4.6-2.9-5.7-2-1.1-5.3-1.7-10.2-1.7h-1.9l.7-4.1a272.49 272.49 0 0 0 33.7-5.7c2.2-.5 3.5-.8 3.9-.8s.8.1.9.4c.2.3.3.9.3 1.8-.1.2-.2.6-.3 1.3-.1.6-.4 1.6-.9 3l-12.7 40.5c10.9-15 21.3-26.5 31.3-34.6 10-8 18.8-12 26.4-12 4.2 0 7.5 1.1 9.8 3.2s3.4 5.2 3.4 9.2c0 2.5-.3 5.4-.8 8.6-.6 3.2-1.4 6.6-2.4 10.3l-13 44.6c-1.1 3.8-1.9 6.6-2.3 8.5s-.6 3.4-.6 4.6c0 1.7.4 3 1.2 3.9s2 1.4 3.5 1.4c2.3 0 4.9-1.6 7.7-4.7 2.9-3.1 6.2-8 9.9-14.6l3.6 2.7c-5.6 10.5-11.2 18.3-16.7 23.4s-11.2 7.6-17.1 7.6c-3.5 0-6.3-1.1-8.4-3.3-2-2.2-3.1-5.2-3.1-9.1 0-1.7.3-3.9.8-6.5.5-2.7 1.3-5.9 2.5-9.8l11.9-43.7c1-4.1 1.8-7.4 2.2-9.8s.7-4.3.7-5.8c0-2.4-.5-4.2-1.4-5.3-1-1.1-2.4-1.7-4.4-1.7-3.7 0-8.4 2.3-14.1 6.8s-11.8 10.9-18.3 19.1c-6.4 8.1-11.8 17.1-16.3 27.1s-8.9 23-13 39.2h-18.4z"/><path d="M1154.6 923.2l19.3-69.5c1.1-3.9 2-7.4 2.6-10.3.6-3 .9-5.2.9-6.7 0-3.1-1-5.2-2.9-6.3-1.9-1.2-5.8-1.9-11.7-2.1l.7-4.3c8.2-1.2 19.8-3.4 35-6.6 1 0 1.7.1 1.9.4.3.3.4.8.4 1.6 0 .3-.1.8-.2 1.3-.1.6-.3 1.3-.5 2l-11.5 41c8.9-15.3 16.6-26.8 23.2-34.4s12.2-11.3 16.9-11.3c3.1 0 5.6.9 7.4 2.8s2.7 4.5 2.7 7.9c0 4-1.2 7.4-3.7 10.2s-5.4 4.2-8.9 4.2c-2.7 0-4.9-.9-6.9-2.6-1.9-1.7-3-4-3.4-6.8-9.6 9.8-18.1 22.2-25.2 37.1-7.2 14.9-13.2 32.3-18 52.4h-18.1zm-9.3-27.6l3.4 3.5c-7.3 9.1-14.8 15.8-22.6 20-7.8 4.3-16.4 6.4-25.7 6.4-9.8 0-17.5-3.1-23-9.4-5.6-6.3-8.3-15-8.3-26.2 0-8.6 1.9-17.2 5.6-25.9s9-16.7 15.8-24c7.1-7.5 14.8-13.3 22.9-17.5s15.9-6.3 23.3-6.3c6.8 0 12 1.5 15.7 4.4 3.6 3 5.4 7.2 5.4 12.7 0 10.1-5.9 19-17.8 26.5s-28.1 12.6-48.8 15.4c-.6 3.1-1 6-1.3 8.6s-.4 4.7-.4 6.4c0 8.2 1.8 14.4 5.3 18.4 3.5 4.1 8.8 6.1 15.8 6.1 5.3 0 11-1.6 16.9-4.9 6-3.3 11.9-8 17.8-14.2zm-53.3-25.7c14.6-2 26.2-6.5 34.8-13.4 8.6-7 12.9-15.3 12.9-25 0-2.9-.7-5.1-2.2-6.7s-3.5-2.4-6.1-2.4c-7.1 0-14.4 4.4-21.9 13.3-7.6 8.8-13.4 20.2-17.5 34.2zm-69.3-42.2l1-4.8c7-1.3 13.6-4.6 20-9.9s12.5-12.8 18.4-22.5h5.2l-8.6 29.8h19.3l-1.8 7.4h-19.3l-18 67.9c-.7 2.4-1.2 4.6-1.6 6.5s-.6 3.4-.6 4.5c0 1.5.4 2.7 1.2 3.6a3.74 3.74 0 0 0 2.9 1.3c2 0 4.4-1.3 7.3-4s6.4-6.8 10.4-12.4l3.4 3.9c-6.1 8.7-12 15.1-17.7 19.4-5.7 4.2-11.2 6.3-16.7 6.3-3.6 0-6.3-1-8.2-2.9-1.8-1.9-2.7-4.8-2.7-8.7 0-1.7.1-3.5.4-5.5s.8-4 1.4-6.2l19.8-73.7h-15.5zm-125.2 95.6l21.9-74 2.2-8.4c.5-2.4.7-4.3.7-5.7 0-2.6-1-4.6-3-5.7s-5.4-1.7-10.2-1.7h-1.9l.7-4.1a272.49 272.49 0 0 0 33.7-5.7l3.9-.8s.8.1.9.4c.2.3.3.9.3 1.8-.1.2-.2.6-.3 1.3-.1.6-.4 1.6-.9 3l-12.7 40.5c10.9-15 21.3-26.5 31.3-34.6 10-8 18.8-12 26.4-12 4.2 0 7.5 1.1 9.8 3.2s3.4 5.2 3.4 9.2c0 2.5-.3 5.4-.8 8.6-.6 3.2-1.4 6.6-2.4 10.3l-13 44.6c-1.1 3.8-1.9 6.6-2.3 8.5s-.6 3.4-.6 4.6c0 1.7.4 3 1.2 3.9s2 1.4 3.5 1.4c2.3 0 4.9-1.6 7.7-4.7 2.9-3.1 6.1-8 9.9-14.6l3.6 2.7c-5.6 10.5-11.2 18.3-16.8 23.4s-11.2 7.6-17.1 7.6c-3.5 0-6.3-1.1-8.4-3.3-2-2.2-3.1-5.2-3.1-9.1 0-1.7.3-3.9.8-6.5.5-2.7 1.3-5.9 2.5-9.8l11.9-43.7c1-4.1 1.8-7.4 2.2-9.8s.7-4.3.7-5.8c0-2.4-.5-4.2-1.4-5.3-1-1.1-2.4-1.7-4.4-1.7-3.7 0-8.4 2.3-14.1 6.8S951.5 849 945 857.2c-6.4 8.1-11.8 17.1-16.3 27.1s-8.9 23-13 39.2h-18.2zm-80.6 0l1.3-4.6h.9c7 0 12.1-1.3 15.3-3.9s5.9-8 8.1-16.1L871 792.9c.7-2.7 1.3-5 1.6-6.8s.5-3.4.5-4.7c0-3.6-1.3-6.2-3.9-7.8-2.6-1.7-7-2.7-13.3-3.1l1.2-4.6h63.5l-1.2 4.6h-1.8c-6.5 0-11.4 1.4-14.6 4.1s-5.9 8-8 15.9l-28.4 105.7c-.7 2.7-1.2 5-1.5 6.9-.3 2-.5 3.6-.5 4.9 0 3.6 1.3 6.3 3.9 7.9s7 2.6 13.1 2.8l-1.1 4.6h-63.6zm961.9-306.4l.1-.1c1-4.5 1.6-8.2 1.6-11 0-2.4-.8-4-2.4-4.9s-4.4-1.4-8.4-1.4h-3.3l.9-4.1c7.6-.5 15.1-1.8 22.8-3.7 7.6-2 11.6-2.9 11.8-2.9.7 0 1.3.2 1.7.5s.6.9.7 1.6c0 .4-.1 1.1-.4 2.1 0 .1 0 .3-.1.3l-19.8 75.1c6-7.7 12-13.4 18.1-17 6-3.6 12.5-5.4 19.5-5.4 9.4 0 17 3.1 22.7 9.2s8.5 14.3 8.5 24.4c0 8-1.6 16-4.8 24.1s-7.9 15.7-14.1 22.9c-8 9.5-16.7 16.6-26.1 21.2-9.4 4.7-19.5 7-30.4 7-8.3 0-15.3-1.5-20.9-4.5s-8.4-6.5-8.4-10.6c0-.5 0-1.1.1-1.6.1-.6.3-1.3.6-2.3l30-118.9zm-11.5 115.6c-.3 1.3-.5 2.5-.7 3.6-.1 1.1-.2 2.1-.2 2.9 0 3.1 1.3 5.5 3.9 7.2s6.4 2.6 11.3 2.6c5 0 9.9-1.1 14.5-3.2 4.7-2.1 9-5.2 13-9.3 7.1-7.2 12.8-15.7 17-25.6 4.3-9.9 6.4-19.6 6.4-29.1 0-7.5-1.9-13.5-5.6-17.9s-8.7-6.7-14.9-6.7c-7.6 0-14.4 3.4-20.5 10.3s-10.9 16.5-14.3 28.8l-9.9 36.4zm-128.1-76.8l.7-4.1c10-1.2 20.2-2.8 30.6-4.9 2.7-.6 4.1-.9 4.4-.9 1 0 1.7.1 2.2.4s.8.7.8 1.2c0 .7-.1 1.5-.2 2.4s-.4 1.9-.7 3.1l-18 62.7a180.96 180.96 0 0 0-2.8 11.1c-.7 3.2-1.1 5.5-1.1 6.8 0 2.2.6 4 1.9 5.3s2.9 2 5 2c4.5 0 9.8-2.7 15.9-8.2 6-5.4 12.8-13.6 20.3-24.4 5.8-8.4 10.8-17.5 15-27.4 4.1-9.9 7.6-20.9 10.3-32.9h17.7l-19.6 72.6c-1 3.7-1.7 6.8-2.2 9.4s-.7 4.5-.7 5.8c0 1.7.4 3 1.1 3.8.7.9 1.9 1.3 3.4 1.3 2.3 0 5-1.5 8.2-4.4 3.1-3 6.6-7.3 10.5-13.1l3.1 3.1c-5.5 9.1-11.3 16.1-17.2 20.9s-11.7 7.2-17.3 7.2c-3.8 0-6.6-1-8.5-2.9-1.9-2-2.8-4.9-2.8-8.8 0-2.3.3-5 .8-8.1.6-3.1 1.4-6.5 2.5-10.4l7.1-24.3c-12.2 19.2-22.9 33.1-32.3 41.7-9.3 8.6-18.3 12.9-26.8 12.9-4.5 0-7.9-1.3-10.4-4.1-2.5-2.7-3.7-6.5-3.7-11.4 0-2.7.3-5.9.9-9.4s2-9.2 4.1-16.9l10.3-37c.5-2.2.9-4.4 1.3-6.6.3-2.2.5-4.2.5-5.9 0-2.9-.9-4.8-2.8-5.9-1.9-1.2-5.7-1.7-11.5-1.7zm-8.6 71.9c-6 8.4-12.1 14.9-18.2 19.6s-11.5 7.1-16.2 7.1c-3.5 0-6.2-1-8.3-3-2-2-3.1-4.8-3.1-8.3 0-3.9 1.6-11.8 4.9-23.5l.3-1.3 28.9-106.4c.3-1.2.5-2.3.7-3.3s.2-2 .2-2.8c0-3.4-.9-5.7-2.8-6.9s-5.7-1.9-11.7-2l.3-4.1c10.1-1.1 20.3-2.7 30.5-4.7 2.7-.5 4.2-.8 4.6-.8.9 0 1.6.2 2 .5s.7.8.7 1.5c0 .6-.1 1.3-.2 2.1s-.4 1.6-.7 2.5l-35.9 129.8c-.7 2.7-1.3 5.1-1.7 7.2s-.6 3.6-.6 4.3c0 1.8.4 3.1 1.1 3.9.7.9 1.7 1.3 3.1 1.3 2.2 0 4.7-1.2 7.4-3.6s6.4-6.5 11-12.5l3.7 3.4zm-60.7-9.7l4.2 3.8c-9.4 11.8-19.4 20.5-30.1 26-10.7 5.6-22.4 8.4-35.3 8.4-20 0-35.9-5.8-47.7-17.3s-17.7-27.1-17.7-46.6c0-11 2.2-21.8 6.6-32.6s10.9-21 19.5-30.8c10.3-11.7 21.9-20.8 34.8-27.2s26-9.7 39.1-9.7c7.6 0 15.4 1.2 23.4 3.7 8 2.4 12.5 3.7 13.5 3.7 1.5 0 2.9-.5 4.3-1.5s2.6-2.4 3.6-4.3h4.6l-9.3 46.7h-4.7c0-.9 0-1.8.1-2.9 0-1 .1-2.4.1-4.1 0-10.8-2.9-19.2-8.6-25s-13.9-8.7-24.6-8.7c-9.1 0-18 2.3-26.8 7-8.7 4.7-16.9 11.5-24.5 20.4-7.8 9.1-13.8 19.4-17.9 30.9-4.2 11.5-6.3 23.5-6.3 35.8 0 16.3 4 29.2 12 38.6s18.9 14.2 32.7 14.2c9.9 0 19.5-2.4 28.8-7.2 9.1-4.8 17.9-11.9 26.2-21.3zm-254.3 36.2l5-37.4 3.9.2c.4 10.3 2.7 18.3 6.7 23.9s9.4 8.5 16.1 8.5c5.4 0 9.9-1.8 13.3-5.5 3.5-3.7 5.2-8.4 5.2-14.3 0-5.2-3.6-12.5-10.6-21.8-.9-1.1-1.6-2-2-2.6-.5-.7-1.3-1.8-2.4-3.2-9.4-12.4-14.1-22.2-14.1-29.5 0-7.6 2.7-14 8.1-19 5.4-5.1 12.1-7.6 20.2-7.6 4.3 0 9.1.8 14.3 2.4s8.4 2.4 9.6 2.4c1.3 0 2.5-.4 3.5-1.2s1.6-1.7 1.7-2.9h3.9l-4.6 33.9h-3.9c-1.1-9.6-3.4-16.8-7.1-21.5s-8.7-7.1-15.1-7.1c-3.7 0-6.9 1.3-9.5 3.8s-4 5.5-4 9.1c0 4.9 3.6 11.9 10.8 21.2.8 1.1 1.5 1.9 1.9 2.4.9 1.3 2.2 3 4 5.3 9 11.8 13.6 21.5 13.6 29.1 0 9.3-3.3 17-9.8 23.3s-14.7 9.4-24.5 9.4c-5 0-10.1-.8-15.4-2.4s-8.3-2.4-9.1-2.4c-1.3 0-2.4.3-3.3.8a4.51 4.51 0 0 0-1.7 2.5h-4.7zm-63.6-1.5l19.3-69.5c1.1-3.9 2-7.4 2.6-10.3.6-3 .9-5.2.9-6.7 0-3-1-5.2-2.9-6.3-1.9-1.2-5.8-1.9-11.7-2.1l.7-4.3c8.2-1.2 19.8-3.4 35-6.6 1 0 1.7.1 1.9.4.3.3.4.8.4 1.6 0 .3-.1.7-.2 1.3s-.3 1.3-.5 2l-11.5 41c8.9-15.3 16.6-26.8 23.2-34.4s12.2-11.3 16.9-11.3c3.1 0 5.6.9 7.4 2.8s2.7 4.5 2.7 7.8c0 4-1.2 7.4-3.7 10.2s-5.4 4.2-8.9 4.2c-2.7 0-4.9-.9-6.8-2.6s-3-4-3.4-6.8c-9.6 9.8-18 22.2-25.2 37.1s-13.2 32.3-18 52.3H1252zm-14-27.6l3.4 3.5c-7.3 9.1-14.8 15.8-22.6 20-7.8 4.3-16.4 6.4-25.8 6.4-9.8 0-17.5-3.1-23-9.4-5.6-6.3-8.3-15-8.3-26.2 0-8.6 1.8-17.2 5.6-25.9 3.7-8.7 9-16.7 15.8-24 7.1-7.5 14.8-13.3 22.9-17.6 8.1-4.2 15.9-6.3 23.3-6.3 6.8 0 12.1 1.5 15.7 4.4 3.6 3 5.4 7.2 5.4 12.7 0 10.1-5.9 19-17.8 26.5s-28.1 12.6-48.8 15.4c-.6 3.1-1 6-1.3 8.6s-.4 4.7-.4 6.4c0 8.2 1.8 14.4 5.3 18.4 3.5 4.1 8.8 6.1 15.8 6.1 5.3 0 11-1.6 16.9-4.9 6-3.2 11.9-7.9 17.9-14.1zm-53.4-25.7c14.6-2 26.2-6.5 34.8-13.4 8.6-7 12.9-15.3 12.9-25 0-2.9-.7-5.1-2.2-6.7s-3.5-2.4-6.1-2.4c-7.1 0-14.4 4.4-21.9 13.3-7.5 8.8-13.4 20.2-17.5 34.2z"/><path d="M1049.2 752.7l21.9-74 2.2-8.4c.5-2.4.7-4.3.7-5.7 0-2.7-1-4.6-2.9-5.7-2-1.1-5.4-1.7-10.2-1.7h-1.9l.7-4.1a272.49 272.49 0 0 0 33.7-5.7c2.2-.5 3.5-.8 3.9-.8s.8.1.9.4c.2.3.3.9.3 1.8-.1.2-.2.6-.3 1.3-.2.6-.4 1.6-.9 3l-12.7 40.5c10.9-15 21.3-26.5 31.3-34.6 10-8 18.8-12 26.4-12 4.2 0 7.5 1.1 9.8 3.2s3.4 5.2 3.4 9.2c0 2.5-.3 5.4-.8 8.6-.6 3.2-1.3 6.6-2.4 10.3l-13 44.6c-1.1 3.8-1.9 6.6-2.3 8.5s-.6 3.4-.6 4.6c0 1.7.4 3 1.2 3.9s2 1.4 3.5 1.4c2.3 0 4.9-1.6 7.7-4.7s6.2-8 9.9-14.6l3.6 2.7c-5.6 10.5-11.2 18.3-16.7 23.4s-11.2 7.6-17.1 7.6c-3.5 0-6.3-1.1-8.4-3.3-2-2.2-3-5.2-3-9.1 0-1.7.3-3.9.8-6.6s1.3-5.9 2.5-9.8l11.9-43.7c1-4.2 1.8-7.4 2.2-9.8s.7-4.4.7-5.8c0-2.4-.5-4.2-1.4-5.3-1-1.1-2.4-1.7-4.5-1.7-3.7 0-8.4 2.3-14.1 6.8s-11.7 10.9-18.3 19.1c-6.4 8.1-11.8 17.1-16.3 27.1s-8.9 23-13 39.2h-18.4zm-41.1-96.8l.9-3.8c10.8-1.3 21.3-3 31.6-5.3 2.1-.5 3.3-.8 3.6-.8.7 0 1.3.3 1.8.8a3.22 3.22 0 0 1 .7 2c0 .5-.1 1.1-.2 1.7s-.4 1.4-.7 2.4l-21.9 72.8c-.6 2.1-1 3.9-1.3 5.4a17.13 17.13 0 0 0-.4 3.6c0 2.1.4 3.8 1.3 4.9s2 1.7 3.5 1.7c2.2 0 5-1.5 8.5-4.6 3.4-3.1 7.1-7.4 11.1-12.9l3.4 3.4c-6.4 9.1-12.6 15.9-18.8 20.6-6.1 4.7-12 7.1-17.4 7.1-3.6 0-6.4-1.1-8.3-3.2s-2.8-5.2-2.8-9.3c0-2.1.3-4.5.8-7.4.6-2.9 1.6-6.8 3.1-12l14.6-51.6.1-.3c1-3.8 1.4-6.2 1.4-7.4 0-2.9-1.1-4.9-3.2-6.1-2.3-1.1-6.1-1.7-11.4-1.7zm23.9-48.1c0-3 1.2-5.8 3.6-8.1 2.4-2.4 5.1-3.6 8-3.6 3.2 0 5.9 1.2 8.3 3.5 2.3 2.3 3.5 5.1 3.5 8.3 0 3.3-1.1 6.1-3.4 8.3s-5 3.3-8.4 3.3c-3.1 0-5.8-1.1-8.1-3.4-2.3-2.4-3.5-5.1-3.5-8.3zM827.1 752.7l1.4-4.6h1.1c7.1 0 12.3-1.3 15.5-3.9s5.9-8 8.2-16.1l28.5-105.9c.7-2.7 1.3-5 1.6-6.8a28.76 28.76 0 0 0 .4-4.7c0-3.5-1.3-6.1-3.8-7.8-2.6-1.7-7-2.7-13.4-3.2l1.3-4.4h60.3c22.7 0 40.5 5.8 53.6 17.5s19.6 27.6 19.6 47.8c0 14.9-3.6 28.8-10.9 41.7s-17.8 24-31.6 33.3c-8.5 5.8-18 10.2-28.3 12.9-10.4 2.8-22 4.2-34.9 4.2h-68.6zm77.4-131.1l-27.1 100.9c-.8 3.1-1.5 5.9-2 8.3-.5 2.5-.8 4.2-.8 5.2 0 3.3 1.7 5.6 5 7 3.4 1.4 9.1 2.1 17.1 2.1 9.3 0 17.8-1.2 25.7-3.7s14.7-6.1 20.5-10.8c9.7-7.8 17.5-18.5 23.3-32.2 5.9-13.7 8.8-28.1 8.8-43.2 0-17.1-4.2-30.2-12.7-39.1-8.5-9-20.9-13.4-37.1-13.4-6.9 0-11.5.9-13.8 2.8-2.3 1.8-4.6 7.2-6.9 16.1z"/></g><path d="M543.1 1010.2c130.2 0 235.8-105.6 235.8-235.8S673.3 538.6 543.1 538.6H258.7C128.5 538.7 23 644.2 23 774.4s105.6 235.8 235.8 235.8h284.3z" fill="#014898"/><path d="M489.6 774.5c0 127.5-103.3 230.8-230.8 230.8S28 901.9 28 774.5C28 647 131.4 543.7 258.8 543.7c127.4-.1 230.8 103.3 230.8 230.8z" fill="#fff"/><path d="M114.2 774.5c0 61.4 38.4 113.8 92.4 134.7V639.8c-54 20.9-92.4 73.2-92.4 134.7zm289 0c0-61.4-38.4-113.7-92.4-134.7v269.3c54.1-20.9 92.4-73.2 92.4-134.6z" fill="#014898"/></svg>