<svg xmlns="http://www.w3.org/2000/svg" xmlns:xlink="http://www.w3.org/1999/xlink" viewBox="0 0 2000 1556" xmlns:v="https://vecta.io/nano"><g fill-rule="evenodd"><path d="M12 600.6c0-5.1.7-7 6.6-6.9l89.6.5c43.9 1.4 83.8 14.2 116.4 45.2 22.4 21.3 36.5 47.5 42 77.8 11 60.4-6 111.7-52 152.7-25.1 22.4-55.2 33.6-88.5 36.3-36.7 3-73.4.6-110.1 1.4-4.4.1-3.9-2.3-3.9-5l-.1-302zm61.1 248c0 4.2.9 5.6 5.4 5.5 12.2-.2 24.5 0 36.7-1.4 22.2-2.5 43-8.9 59.3-25.1 27.3-27.3 37.4-60.6 29.8-98.2-7.6-37.9-29.5-64.6-67.3-76.3-18.4-5.7-37.6-5.4-56.6-5.6-5.4-.1-7.3 1-7.3 7v194.1zM1866.2 776l98.3 131.5h-13.2c-18.5 0-37-.3-55.4.2-5.6.1-8.4-1.9-11.3-6.3l-77.2-114.9c-.3-.5-.8-1-1-1.6-1.6-3.8-4.9-3.6-7.9-3-3.3.7-1.7 3.7-1.7 5.7l.1 112.7c.1 6.2-1.8 7.5-7.6 7.3-16.2-.4-32.4-.3-48.6-.1-4.1.1-5.7-.7-5.7-5.3V598.9c0-3.4.4-5.3 4.6-5.2 34.9.7 69.7-1.4 104.6 1.3 24.2 1.9 46.9 8.4 65.5 24.9 22.3 19.8 28.6 45.7 27.1 74.3-2.2 42-25.1 69.8-65.9 80.1-1.6.4-2.9 1-4.7 1.7zm-69.6-85l-.1 41.6c-.1 4.9 1.4 5.8 5.9 5.6 9.1-.4 18.2-.2 27.3-1.1 26.6-2.8 41.8-18.2 43.8-44.9 1.6-21.5-9.4-37.7-29.8-44.4-13.4-4.4-27.3-3.9-41.2-4.2-4.5-.1-6.1.9-5.9 5.7.3 13.9 0 27.8 0 41.7zm-275-91c0-4.7.9-6.2 6-6.2h161.9c4.2 0 5.7.8 5.6 5.4a1056.2 1056.2 0 0 0 0 43.6c.1 4.4-1.5 5-5.3 5-33.4-.1-66.8.1-100.2-.2-5.7-.1-6.8 1.6-6.7 6.9a1786.16 1786.16 0 0 1 0 56.7c-.1 4.7 1.3 5.9 5.9 5.8l96.5-.2c5.1 0 6.1 1.5 6 6.2a966.16 966.16 0 0 0 0 41.7c.1 4.4-1.2 5.4-5.5 5.4-32-.2-63.9.1-95.9-.3-6-.1-7.1 1.8-7 7.3v71c0 4.7.9 6.3 6 6.2l100.2-.3c5 0 6.1 1.4 6 6.1-.3 14.3-.2 28.6 0 43 0 3.4-.8 4.6-4.4 4.6-54.8-.1-109.6-.2-164.4.1-5 0-4.6-2.4-4.6-5.7l-.1-302.1zM421.4 816.9c8.3 15.4 19.1 28 35.2 35.1 17.2 7.6 35 10.2 52.9 2.2 16.3-7.3 25-20.2 25.7-37.9.7-17.5-8.7-29.2-23.8-36.8-17.4-8.7-36.2-13.8-54-21.6-17.4-7.6-33.9-16.3-45.9-31.8-7.3-9.4-11.4-20.2-12.8-31.8-6.3-51.5 21.9-88.3 64.7-100.5 44.7-12.6 84.9-1.5 121 26.8 2.7 2.1 3.6 3.6 1 6.8-9.2 11.5-18.2 23.2-26.8 35-2.6 3.6-3.8 2.6-6.2 0-9.8-10.5-21.1-18.9-35.7-21-18.4-2.6-35.8-.3-48.6 15-11.5 13.6-8.9 30.8 5.6 41.1 13 9.2 28.1 13.8 42.7 19.5 13.7 5.3 27.1 11.2 39.9 18.5 26.1 14.8 40.5 36.5 42.4 67 3.2 51.4-23.9 94.8-74.2 107.8-53.7 13.8-106.2-1.5-140.6-52.3-1.4-2.1-1.6-3.3.4-5.2l37.1-35.9zm771.6-223l62-.1c4.1 0 5.7 1.4 7.1 5l80.9 204c3.8-4.2 57.7-140.8 83.1-204.2 1-2.5 1.7-4.8 5.4-4.7l63.1.1-133.3 316.8c-1.6 3.7-3.3 4.9-7.2 4.8a309.53 309.53 0 0 0-23.6 0c-3.5.1-5.1-1.2-6.4-4.3L1196 601.4c-1.1-2.4-1.9-4.7-3-7.5zm-333.6 84.8c-11.6-11.1-22.7-20.4-35.9-26.5-52.1-24.1-114.8 1.8-134.9 57.1-15.5 42.6-10.3 83 20.8 117.6 20.8 23.1 48.2 31.5 78.9 31.2 24.3-.3 44.4-10.1 62.2-25.8 2.6-2.3 5.1-4.7 7.7-7.1 2.2 1.2 1.3 3.1 1.3 4.5l.1 61.7c0 3.1-.4 5-3.8 6.7-62.9 30.3-142.5 18.3-191.8-32.1-30.5-31.2-45.5-68.8-46.4-112.4-1.6-73.7 47.5-138.1 115.9-158.7 41.9-12.7 82.9-10.2 122.4 9.6 2.1 1.1 3.8 2 3.8 4.9l-.3 69.3zm-500.2 222c0 5.2-.7 7.2-6.6 7-16.6-.5-33.2-.3-49.8-.1-4 .1-5.3-1-5.3-5.1V599.2c0-4.6 1.5-5.5 5.7-5.4h49.2c5.4-.1 6.9 1.2 6.9 6.8l-.1 300.1z" fill="#231f20"/><path d="M1976 591.7c-13.2 0-24 10.8-24 24.2s10.7 24.2 24 24.2 24-10.8 24-24.2-10.7-24.2-24-24.2zm0 43.9c-10.4 0-18.9-8.8-18.9-19.7s8.5-19.7 18.9-19.7 18.9 8.8 18.9 19.7-8.4 19.7-18.9 19.7z" fill="#252122"/><path d="M1978.1 618.4l8.9 11.9h-1.2-5a1 1 0 0 1-1-.6l-7-10.4-.1-.1c-.1-.3-.4-.3-.7-.3-.3.1-.2.3-.2.5v10.2c0 .6-.2.7-.7.7h-4.4c-.4 0-.5-.1-.5-.5v-27.4c0-.3 0-.5.4-.5l9.4.1c2.2.2 4.2.8 5.9 2.2 2 1.8 2.6 4.1 2.4 6.7-.2 3.8-2.3 6.3-6 7.2.1.2 0 .2-.2.3zm-6.3-7.7v3.8c0 .4.1.5.5.5l2.5-.1c2.4-.3 3.8-1.6 4-4.1.1-1.9-.8-3.4-2.7-4-1.2-.4-2.5-.4-3.7-.4-.4 0-.5.1-.5.5l-.1 3.8z" fill="#231f20"/></g><linearGradient id="A" gradientUnits="userSpaceOnUse" x1="974.382" y1="600.039" x2="1114.935" y2="901.455"><stop offset=".383" stop-color="#e45e26"/><stop offset="1" stop-color="#f8a020"/></linearGradient><ellipse cx="1044.7" cy="750.7" rx="165.8" ry="166.4" fill-rule="evenodd" fill="url(#A)"/><defs><ellipse id="B" cx="1044.7" cy="750.7" rx="165.8" ry="166.4"/><path id="C" d="M1229.2 660.4c83 93.9 84.3 228.3 2.9 300.2s-214.6 54.1-297.6-39.8-84.3-228.3-2.9-300.2 214.6-54.1 297.6 39.8z"/></defs><clipPath id="D"><use xlink:href="#B"/></clipPath><g clip-path="url(#D)"><linearGradient id="E" gradientUnits="userSpaceOnUse" x1="1482.949" y1="1044.463" x2="1671.794" y2="1449.442" gradientTransform="matrix(0.7134 -0.6305 0.6622 0.7493 -869.1649 850.7891)"><stop offset=".323" stop-color="#e45e26" stop-opacity="0"/><stop offset="1" stop-color="#f8a020" stop-opacity="0"/></linearGradient><use xlink:href="#C" fill-rule="evenodd" fill="url(#E)"/><defs><filter id="F" filterUnits="userSpaceOnUse" x="871.4" y="576.5" width="420.8" height="428.3"><feColorMatrix values="-1 0 0 0 1  0 -1 0 0 1  0 0 -1 0 1  0 0 0 1 0" color-interpolation-filters="sRGB"/></filter></defs><mask maskUnits="userSpaceOnUse" x="871.4" y="576.5" width="420.8" height="428.3" id="G"><g filter="url(#F)"><image width="426" height="433" xlink:href="5F6BF6D2D85E926F.jpg" transform="translate(869 574)" overflow="visible"/></g></mask><g opacity=".75" mask="url(#G)"><use xlink:href="#C" fill-rule="evenodd" fill="#8a371e"/></g></g></svg>