<svg xmlns="http://www.w3.org/2000/svg" viewBox="0 0 2000 1556" xmlns:v="https://vecta.io/nano"><path d="M1167.5 168.6c33.5-39.4 82.8-61.1 141.9-61.1h212.9V1030c0 88.7-86.7 175.4-175.4 175.4h-218.8v-71c-33.5 41.4-84.8 71-136 71H773.2v-71c-33.5 41.4-84.8 71-136 71H418.4V286.8c0-108.4 76.9-179.4 181.3-179.4h212.9v61.1c33.5-39.4 82.8-61.1 141.9-61.1h212.9v61.2z" fill="#f5c800"/><path d="M457.9,1166h179.4c63.1,0,136-59.1,136-136V146.9H599.8c-80.8,0-141.9,51.2-141.9,140V1166z" fill="#0094da"/><path d="M812.7,1166H992c63.1,0,136-59.1,136-136V146.9H954.6c-80.8,0-141.9,51.2-141.9,140V1166z" fill="#e20613"/><path d="M1167.5,1166h179.4c63.1,0,136-59.1,136-136V146.9h-173.5c-80.8,0-141.9,51.2-141.9,140V1166z" fill="#009540"/><path d="M507.1 681.1h-49.3c13.8 55.2 78.8 98.6 151.8 98.6 67 0 157.7-37.5 157.7-108.4V543.1H655v128.1c0 37.5-29.6 67-71 67-37.4 0-70.9-23.6-76.9-57.1z" fill="#fff"/><path d="M425.8 1380.6c4.1 23.1 27.2 39.4 53 39.4 28.5 0 48.9-20.4 48.9-46.2v-88.3h77.4v88.3c0 48.9-62.5 74.7-108.6 74.7-50.3 0-95.1-29.9-104.6-67.9h33.9zm406.1 28.5v25.8H701.5c-40.7 0-74.7-34-74.7-74.7s34-74.7 74.7-74.7h130.4v27.2c-31.2-6.8-61.1-10.9-76.1-10.9-32.6 0-58.4 25.8-58.4 58.4s25.8 58.4 58.4 58.4c15 0 44.8-2.7 76.1-9.5zm187.4-47.5c23.1 0 40.7 16.3 40.7 36.7s-17.7 36.7-40.7 36.7H848.2v-149.4h171.1c20.4 0 38 17.7 38 38 0 20.4-17.6 38-38 38zm-105.9 57h54.3c13.6 0 25.8-12.2 25.8-25.8s-12.2-25.8-25.8-25.8h-54.3v51.6zm0-116.8v51.6h53c13.6 0 25.8-12.2 25.8-25.8s-12.2-25.8-25.8-25.8h-53z"/><path d="M1482.9 706.7c0 29.6-25.6 53.2-59.1 53.2h-248.4V543.1h248.4c29.6 0 55.2 25.6 55.2 55.2s-25.6 55.2-55.2 55.2c33.4 0 59.1 23.6 59.1 53.2zm-212.9-65h76.9c19.7 0 37.5-17.7 37.5-37.5s-17.7-37.5-37.5-37.5H1270v75zm78.8 94.6c19.7 0 37.5-17.7 37.5-37.5s-17.7-37.5-37.5-37.5H1270v74.9h78.8zm-228.6-13.8V760H930.9c-59.1 0-108.4-49.3-108.4-108.4s49.3-108.4 108.4-108.4h189.2v39.4c-45.3-9.9-88.7-15.8-110.4-15.8-47.3 0-84.8 37.5-84.8 84.8s37.5 84.8 84.8 84.8c21.8-.1 65.1-4.1 110.5-13.9z" fill="#fff"/><path d="M1159.5 1415.1c-13.9 0-14.5-20.2-14.5-32.5v-41.4c0-11.7-1.4-37.7 14.5-37.7 9.9 0 9.2 17.9 10.1 27.5h19.9c.1-3.7-.2-7.5-.5-11.4-1.4-25.4-11.5-38.1-29.5-38.5-32.3 0-34.5 28.3-35.3 66.4v21.2c0 39.7 2.1 68.9 35.3 68.9 22.6 0 29.2-20.8 30.1-48.1l.5-8.7h-20.4c-.4 9.6.9 34.3-10.2 34.3zm64-130.4l-25.8 149.4h21.6l5.4-37.9h23.7l5.3 37.9h21.7l-24.6-149.4h-27.3zm4.4 89.6l6-42.4c1.1-7.1 1.4-13.7 2-20.8.1-3.3.5-6.7.8-10h.3l.8 10c.6 7.1.9 13.7 2 20.8l5.6 42.4h-17.5zm126.2 9.8c0-14.4-3.6-25-15.5-27v-.4c13.6-2.7 16.6-19.8 16.6-36.2 0-27.5-13.3-35.8-30.8-35.8h-38.3v149.4h20.2v-64.3h3.6c5.7 0 11.8-.2 17.2 1.9 6.9 2.9 6.8 15.4 6.9 24.6.2 10-.3 28.3 2.1 37.9h22.3v-2.7c-4.9-4.5-4.3-41.3-4.3-47.4zm-31.8-36.4h-16v-41.2h15.1c7.7.2 12.7 3.1 12.7 19.8-.1 15-5.2 21-11.8 21.4zm94.9-63h-42.1v149.4h37.4c5 0 10.6-.4 14.9-4 16.7-13.3 16.7-47.4 16.7-77 0-24.6-1.4-41.2-6-51.6-6.1-13.9-15.9-16.8-20.9-16.8zm-13.1 127.5h-8.7v-105.7h13.3c12.1 0 14.8 13.9 14.8 49.3-.1 43.3-1.3 56.4-19.4 56.4zm113.1-48.9c-5.6-7.5-17.9-18.7-24.6-24.6-6.3-5.4-11.5-9.8-11.5-21.2 0-10.2 4.2-13.9 11-13.9 11.2 0 12.1 13.1 11.9 26.4h19.4c-.2-14.8.8-48.9-31.5-48.9-21.3 0-31.7 13.9-31.7 39.3 0 8.1 1.8 16.2 5.1 22.9 8.3 15 21.4 23.1 32 34.5 5.1 5 8 11 8 19.8 0 11.2-3.9 17.5-12.5 17.5-10 0-13.1-10.6-12.7-25.2v-8.7H1460v11c0 26.6 8.6 45.4 32.9 45.4 19.7 0 33.3-14.8 33.3-43.1 0-12.9-2.1-21.8-9-31.2zm21.1-165.7c0-3-.8-5.7-3.3-7.5-2.2-1.3-5.4-1.4-7.9-1.4h-13.9v28.9h5.7v-12.2h5.6l6.4 12.2h6.6l-7-12.2c5-.3 7.8-2.5 7.8-7.8zm-11.1 3.5h-8.4v-8.1h7c2.8 0 6.9 0 6.9 3.8 0 3.7-2.3 4.4-5.5 4.3zm-3-24.7c-14.8 0-26.8 11.9-26.8 26.6 0 14.8 12 26.8 26.8 26.8 14.7 0 26.7-11.9 26.7-26.8 0-14.7-12-26.6-26.7-26.6zm0 48.3c-12 0-21.7-9.7-21.7-21.7 0-11.9 9.7-21.6 21.7-21.6s21.7 9.7 21.7 21.6c-.1 12.1-9.7 21.7-21.7 21.7z"/></svg>