<svg xmlns="http://www.w3.org/2000/svg" viewBox="0 0 2000 1556" xmlns:v="https://vecta.io/nano"><path d="M1960.6 1534.9v4h3.7c.7 0 1.4-.2 2-.5.5-.3.8-.9.8-1.5s-.3-1.2-.8-1.5c-.6-.4-1.3-.5-2-.5h-3.7 0zm3.8-2.8c1.6-.1 3.2.4 4.5 1.3 1.1.9 1.6 2.2 1.6 3.5 0 1.2-.4 2.3-1.3 3.1-1 .9-2.3 1.4-3.6 1.5l5 5.7h-3.8l-4.6-5.7h-1.5v5.7h-3.2v-15.1h6.9 0zm-1 20.3c1.7 0 3.4-.3 4.9-1 1.5-.6 2.8-1.6 4-2.7s2.1-2.5 2.7-4a13.05 13.05 0 0 0 0-9.9c-.6-1.5-1.6-2.8-2.7-4-1.2-1.1-2.5-2.1-4-2.7-1.6-.6-3.2-1-4.9-.9a14.26 14.26 0 0 0-5 .9c-1.5.6-2.9 1.6-4.1 2.7-3.6 3.7-4.7 9.2-2.7 14 .6 1.5 1.5 2.9 2.7 4 1.2 1.2 2.6 2.1 4.1 2.7 1.5.7 3.2 1 5 .9m0-28.9c4.4 0 8.6 1.7 11.8 4.8 1.5 1.5 2.7 3.2 3.5 5.2 1.7 4 1.7 8.6 0 12.7a16.44 16.44 0 0 1-3.5 5.2c-1.5 1.5-3.3 2.7-5.3 3.5-2 .9-4.3 1.3-6.5 1.3-2.3 0-4.5-.4-6.6-1.3-2-.8-3.8-2-5.3-3.5s-2.7-3.4-3.5-5.4c-1.7-4-1.7-8.6 0-12.7a16.44 16.44 0 0 1 3.5-5.2c1.5-1.5 3.3-2.7 5.3-3.5 2.1-.9 4.3-1.3 6.6-1.3m-1531.2-58.2c0-28.8 18.9-52.6 49.8-52.6 29.5 0 49.4 22.7 49.4 52.6s-19.9 52.6-49.4 52.6c-30.9 0-49.8-23.7-49.8-52.6m132.8 0V1383h-35.7v20c-11.3-14.8-28.5-24.1-51.8-24.1-46 0-82.1 36.1-82.1 86.2s36.1 86.2 82.1 86.2c23.3 0 40.5-9.3 51.8-24.1v19.9H565v-82h0zm1206 0c0-28.8 18.9-52.6 49.8-52.6 29.6 0 49.4 22.7 49.4 52.6s-19.9 52.6-49.4 52.6c-30.9 0-49.8-23.7-49.8-52.6m132.9 0v-148h-35.7v85.9c-11.3-14.8-28.5-24.1-51.8-24.1-46 0-82.1 36.1-82.1 86.2s36.1 86.2 82.1 86.2c23.3 0 40.5-9.3 51.8-24.1v19.9h35.7v-82zm-895.9-54.2c23 0 37.8 14.4 41.5 39.8h-85.2c3.9-23.7 18.3-39.8 43.7-39.8m.7-32c-48.1 0-81.8 35-81.8 86.2 0 52.2 35 86.2 84.1 86.2 24.7 0 47.4-6.2 67.3-23l-17.5-26.4c-13.8 11-31.3 17.2-47.8 17.2-23 0-43.9-10.7-49.1-40.2h121.9c.3-4.4.7-8.9.7-13.7-.2-51.3-31.9-86.3-77.8-86.3m430.9 86.1c0-28.8 18.9-52.6 49.8-52.6 29.5 0 49.4 22.7 49.4 52.6s-19.9 52.6-49.4 52.6c-30.9 0-49.8-23.7-49.8-52.6m132.9 0v-82h-35.7v20c-11.4-14.8-28.5-24.1-51.8-24.1-46 0-82.1 36.1-82.1 86.2s36.1 86.2 82.1 86.2c23.3 0 40.5-9.3 51.8-24.1v19.9h35.7V1465h0zm-334.5 0c0 49.8 34.7 86.2 87.6 86.2 24.7 0 41.2-5.5 59-19.6l-17.1-28.8c-13.4 9.6-27.5 14.8-43 14.8-28.5-.3-49.4-20.9-49.4-52.6s20.9-52.2 49.4-52.6c15.5 0 29.6 5.2 43 14.8l17.1-28.8c-17.8-14.1-34.3-19.6-59-19.6-52.9.1-87.6 36.4-87.6 86.2m460.1-86.1c-20.6 0-34 9.6-43.3 24.1v-20h-35.4v164.1h35.7v-92c0-27.2 11.7-42.2 35-42.2 7.6-.1 15.2 1.3 22.3 4.1l11-33.6c-7.7-3.1-18-4.5-25.3-4.5m-956.6 17.2c-17.2-11.3-40.8-17.2-66.9-17.2-41.6 0-68.3 19.9-68.3 52.5 0 26.8 19.9 43.3 56.6 48.4l16.9 2.4c19.6 2.8 28.8 7.9 28.8 17.2 0 12.7-13 19.9-37.4 19.9-24.7 0-42.6-7.9-54.6-17.2l-16.8 27.8c19.6 14.4 44.3 21.3 71.1 21.3 47.4 0 74.9-22.3 74.9-53.6 0-28.8-21.6-43.9-57.3-49.1l-16.8-2.4c-15.5-2-27.8-5.1-27.8-16.1 0-12 11.7-19.2 31.2-19.2 21 0 41.2 7.9 51.2 14.1l15.2-28.8h0zm460.5-17.2c-20.6 0-34 9.6-43.2 24.1v-20h-35.4v164.1h35.7v-92c0-27.2 11.7-42.2 35-42.2 7.6-.1 15.2 1.3 22.3 4.1l11-33.6c-7.9-3.1-18.2-4.5-25.4-4.5m-304.6 4.1H839v-49.8h-36v49.8h-33.3v32.6H803v74.9c0 38.1 14.8 60.8 57 60.8 15.5 0 33.3-4.8 44.7-12.7l-10.3-30.6c-10.7 6.2-22.3 9.3-31.6 9.3-17.8 0-23.7-11-23.7-27.5v-74.2h58.4l-.1-32.6zm-533.5 164.2v-103c0-38.8-24.7-64.9-64.6-65.2-21-.3-42.6 6.2-57.7 29.2-11.3-18.2-29.2-29.2-54.2-29.2-17.5 0-34.7 5.2-48.1 24.4V1383h-35.7v164.1h36v-91c0-28.5 15.8-43.6 40.2-43.6 23.7 0 35.7 15.4 35.7 43.3v91.3h36.1v-91c0-28.5 16.5-43.6 40.2-43.6 24.4 0 36 15.4 36 43.3v91.3l36.1.1z" fill="#231f20"/><path d="M1980.9 1001.2v-24h-6.2l-7.2 16.5-7.2-16.5h-6.3v24h4.4v-18.1l6.8 15.6h4.6l6.8-15.6v18.1h4.3 0zm-39.6 0v-19.9h8v-4h-20.4v4h8v19.9h4.4 0z" fill="#f79410"/><path d="M1270.6 1104.2H729.7v-972h540.9v972z" fill="#ff5f00"/><path d="M764 618.2c0-197.2 92.3-372.8 236.1-486C891.3 46.4 756.7-.2 618.1 0 276.7 0 0 276.8 0 618.2s276.7 618.2 618.1 618.2c138.6.2 273.2-46.4 382-132.2C856.3 991 764 815.4 764 618.2" fill="#eb001b"/><path d="M2000.2 618.2c0 341.4-276.7 618.2-618.1 618.2-138.6.2-273.2-46.4-382-132.2 143.8-113.2 236.1-288.8 236.1-486s-92.3-372.8-236.1-486C1108.9 46.4 1243.6-.2 1382.2 0c341.3 0 618 276.8 618 618.2" fill="#f79e1b"/></svg>