<svg xmlns="http://www.w3.org/2000/svg" viewBox="0 0 2000 1556" fill="#0a1f8f" xmlns:v="https://vecta.io/nano"><path d="M1980.9 1001.2v-24h-6.2l-7.2 16.5-7.2-16.5h-6.3v24h4.4v-18.1l6.8 15.6h4.6l6.8-15.6v18.1h4.3 0zm-39.6 0v-19.9h8v-4h-20.4v4h8v19.9h4.4 0z"/><path d="M757.6 447.6l-259.9 667.1-171.2.6-131.2-531.1c-8-32.7-14.8-44.7-38.8-58.4-39-22.4-103.3-43.2-160-56l3.8-19.4 275.6-1c35.1-.1 66.8 24.6 74.9 67.6l69.7 385.3 166.8-454.1 170.3-.6zm672.5 446.1c0-175.8-229.2-184.7-227.9-263.2.3-23.9 21.7-49.4 68.4-56.1 23.3-3.3 87.1-6 159.9 29.2l27.9-141.4c-39-15-89.2-29.2-151.6-29-160 .6-272.4 91.6-272.9 221.3-.7 95.9 81 149 142.5 180.7 63.2 32.4 84.4 53.3 84.3 82.5-.3 44.7-50.1 64.6-96.6 65.5-81.4 1.7-128.8-22.9-166.6-41.4L968.7 1088c37.9 18.4 107.8 34.2 180.3 34.7 170-.6 281-90.5 281.1-229m423.5 215.9l149.8-.6-133.2-665.7-138.3.5c-31 .1-57.2 19.5-68.7 49.1l-240.6 618.2 170-.6 33.4-99.6 207.8-.8 19.8 99.5zM1672 874.3l84.3-250.5 50 250-134.3.5zM989 446.7l-131.4 666.7-161.9.6L827 447.3l162-.6z"/></svg>