<svg viewBox="0 0 107.24 100" xmlns="http://www.w3.org/2000/svg"><path d="m33.82 66.77c-21.45-14.76-21.51-40.77-6.66-56.01 13.73-14.09 37.68-14.43 52.41-.49 14.05 13.29 17.13 40.46-6.03 56.57 3.88 1.56 7.6 3.05 11.07 5.06 8.45 4.9 15.31 11.4 20.7 19.41.32.47.63.95.92 1.44 1.67 2.89 1.28 5.27-1.1 6.65-2.21 1.28-4.51.45-6.31-2.17-1.45-2.11-2.87-4.26-4.52-6.22-22.73-27.08-65.99-24.46-85.17 5.12-2.41 3.72-4.63 4.72-7.1 3.18-2.63-1.64-2.71-4.07-.14-7.89 7.14-10.61 16.62-18.51 28.69-23.33.97-.39 1.93-.78 3.24-1.32zm47.89-30.66c0-15.39-12.31-27.58-27.99-27.74-15.46-.15-28.13 12.25-28.17 27.57-.04 15.39 12.3 27.55 28 27.59 15.71.05 28.17-12.09 28.16-27.42z" fill="#595958"/></svg>