<svg viewBox="0 0 53.22 51.83" xmlns="http://www.w3.org/2000/svg"><g fill="#fff"><path d="m42.94 44.1c0-.88-.01-1.76 0-2.64.01-.72.27-1.32.85-1.79 4.28-3.44 5.9-8.14 5.69-13.38-.1-2.43 1.09-4.03 2.13-5.84.09-.15.27-.35.41-.35.4 0 .39.39.45.64.57 2.19.84 4.42.7 6.68-.35 5.39-1.98 10.25-6 14.08-.46.44-.66.93-.65 1.56.02 1.12.02 2.25 0 3.37-.05 3.05-1.89 5.08-4.93 5.31-1.56.12-3.13.09-4.69 0-1.93-.11-3.24-1.15-3.69-3-.21-.89-.66-1.08-1.43-1.05-.68.03-1.37.04-2.05 0-1.61-.1-2.98-.14-3.52 1.99-.38 1.47-1.9 2.03-3.42 2.08-1.37.05-2.74.05-4.11.01-3.22-.08-5.35-2.13-5.43-5.34-.03-1.11-.41-1.76-1.29-2.41-2.88-2.11-5.26-4.67-6.77-7.96-.41-.9-1.02-1.47-1.97-1.8-2.14-.72-3.14-2.35-3.19-4.58-.04-1.42-.03-2.84 0-4.25.05-2.23 1.03-3.84 3.19-4.6.73-.26 1.29-.62 1.55-1.41 1.23-3.77 3.8-6.46 7.14-8.42 1.04-.61 1.38-1.34 1.34-2.49-.07-1.81-.02-3.62-.01-5.43 0-1.28.46-2.32 1.68-2.84 1.22-.53 2.27-.12 3.22.74 2.14 1.94 4.3 3.87 7.28 4.45.17.03.46.22.45.3-.1 1.05-.77 1.86-1.22 2.76-.28.56-.88.27-1.33.12-1.93-.64-3.61-1.73-5.22-2.93-.3-.22-.57-.71-.97-.53-.49.22-.26.78-.26 1.2-.03 1.47-.04 2.93 0 4.4.02 1.1-.41 1.87-1.4 2.35-3.62 1.75-6.37 4.28-7.65 8.24-.44 1.37-1.5 2.3-2.9 2.7-.98.29-1.33.87-1.26 1.83.04.54.04 1.08 0 1.61-.15 1.84-.12 3.46 2.23 4.03 1.03.25 1.69 1.29 2.16 2.29 1.67 3.62 4.23 6.43 7.7 8.4.89.51 1.17 1.26 1.12 2.21-.21 4.12.67 3.68 3.9 3.77 1.46.04 2.41-.11 2.86-1.82.41-1.54 1.84-2.23 3.44-2.28 1.91-.05 3.82-.06 5.72 0 1.86.06 3.18 1.02 3.7 2.8.29 1.01.8 1.37 1.77 1.27.19-.02.39 0 .59 0q4.1 0 4.11-4.07z"/><path d="m50.06 13.91c-.02 3.47-1.36 6.34-3.89 8.69-1.63 1.52-3.48 1.96-5.54 1.14-3.58-1.43-7.16-2.88-10.69-4.43-2.63-1.16-3.54-3.21-3.2-6.57.62-6.07 6.07-10.87 12.03-10.6 6.38.29 11.29 5.42 11.3 11.77zm-3.63.07c.04-4.62-3.52-8.24-8.08-8.22-4.51.02-8.11 3.79-8.02 8.34.02 1.01.37 1.67 1.3 2.06 3.34 1.38 6.67 2.76 10 4.16.89.37 1.58.17 2.25-.48 1.67-1.6 2.59-3.52 2.55-5.86z"/><path d="m18.51 21.11c-.01 1.36-1.29 2.56-2.7 2.54-1.32-.02-2.52-1.22-2.54-2.54-.02-1.41 1.17-2.6 2.61-2.6 1.41 0 2.64 1.22 2.63 2.59z"/></g></svg>