<svg viewBox="0 0 84.5 100" xmlns="http://www.w3.org/2000/svg"><g fill="#595958"><path d="m47.4 0c3.15.42 6.29.88 9.33 1.75 7.61 2.17 14.2 5.84 20.15 10.45.56.43 1.12.86 1.65 1.31 1.04.89 1.16 1.83.35 2.57-.82.75-1.89.73-2.94-.14-2.9-2.39-6.01-4.54-9.37-6.42-8.2-4.57-17.13-6.78-26.86-6.13-6.86.46-13.27 2.36-19.32 5.19-4.4 2.06-8.48 4.54-12.15 7.51-1.06.85-2.16.89-2.95.14s-.64-1.81.43-2.65c5.96-4.69 12.67-8.34 20.18-10.83 4.08-1.35 8.27-2.28 12.62-2.64.14-.01.28-.07.42-.11z"/><path d="m42.84 27.04c6.66.29 12.55 2.35 16.87 7.2 2.35 2.65 3.27 5.8 3.78 9.05 1.12 7.14 1.69 14.34 2.9 21.48.95 5.58 2.41 11.04 5 16.23.12.24.25.48.31.73.25.95-.22 1.74-1.19 2.04-.9.28-1.86-.04-2.31-.89-.62-1.18-1.18-2.39-1.69-3.61-2.39-5.71-3.6-11.65-4.47-17.66-.93-6.41-1.36-12.87-2.63-19.24-1.29-6.47-5.97-10.48-13.37-11.67-8.69-1.4-16.4 2.45-19.94 9.92-1.42 3.01-1.96 6.17-2.49 9.36-1.41 8.59-3.64 16.99-7.98 24.86-.68 1.23-1.51 2.4-2.61 3.38-1.05.95-2.17 1.03-3.03.28-.78-.68-.67-1.69.29-2.59 1.64-1.53 2.57-3.42 3.43-5.32 2.98-6.59 4.97-13.42 6.02-20.43.69-4.61 1.56-9.13 4.24-13.23 4.14-6.32 10.34-9.66 18.89-9.9z"/><path d="m54.17 47.9c-.11 4.49-1.35 8.82-2.75 13.09-3.22 9.81-7.57 19.23-12.87 28.32-1.18 2.03-2.45 4.01-3.93 5.89-.19.24-.37.49-.58.71-.78.85-1.84 1.04-2.74.5-.88-.53-1.07-1.52-.35-2.41 2.11-2.57 3.81-5.35 5.38-8.19 5.43-9.86 10.04-19.99 12.88-30.69.6-2.25 1.09-4.53 1.18-6.83.11-2.73-.47-5.33-2.79-7.37-3.15-2.76-7.93-2.35-10.37.91-2.04 2.72-2.89 5.82-3.57 8.96-.83 3.86-1.04 7.82-2.43 11.59-2.92 7.96-7.39 15.24-12.83 22.08-.08.11-.18.21-.27.31-.91 1.02-2.03 1.26-2.97.64-.96-.63-.95-1.54-.07-2.66 5.61-7.02 10.28-14.46 12.93-22.77 1.05-3.29 1.17-6.74 1.93-10.08.69-3.04 1.58-6.02 3.29-8.76 1.83-2.94 4.47-4.95 8.4-5.28 4.36-.37 7.73 1.21 10.14 4.34 1.78 2.31 2.45 4.92 2.36 7.7z"/><path d="m42.09 18.48c7.55.1 14.33 2.51 20.55 6.3 1.19.72 2.32 1.51 3.45 2.3 1.08.76 1.28 1.78.56 2.54-.75.79-1.82.8-2.96 0-3.08-2.17-6.32-4.09-9.96-5.48-13.86-5.28-27.85-1.08-35.23 10.53-2.55 4.02-3.82 8.34-4.47 12.87-.72 5.03-1.77 10.02-3.98 14.75-.73 1.57-1.63 3.07-2.87 4.38-.26.27-.53.55-.83.79-1.07.85-2.15.9-2.95.16-.83-.76-.73-1.62.32-2.56 2.13-1.9 3.09-4.33 3.96-6.79 1.52-4.3 2.14-8.75 2.94-13.18 1.94-10.75 7.8-19.19 19.17-24.2 3.8-1.67 7.91-2.37 12.3-2.41z"/><path d="m42.68 10.07c9.72.05 18.61 2.29 26.15 7.89 5.81 4.32 9.6 9.85 12.21 16.05 1.62 3.85 2.73 7.83 3.42 11.89.2 1.18-.38 1.99-1.47 2.14-1.17.16-2.03-.44-2.26-1.66-1.01-5.35-2.58-10.55-5.36-15.42-4.29-7.49-10.68-12.97-19.84-15.75-3.28-.99-6.66-1.51-10.12-1.73-3.95-.25-7.85.01-11.72.66-1.39.23-2.37-.24-2.58-1.23-.22-1.01.46-1.78 1.85-2.03 3.21-.57 6.44-.91 9.73-.82z"/><path d="m44.11 46.35c-.64 9.22-2.66 17.71-6.26 25.9-3.07 6.97-7.19 13.4-12.72 19.12-.31.32-.62.65-.97.94-.77.63-1.89.64-2.62.06-.72-.57-.82-1.44-.2-2.2.41-.5.9-.95 1.35-1.43 6.82-7.21 11.25-15.48 14.18-24.42 1.87-5.7 3-11.52 3.37-17.45 0-.1.01-.2.02-.29.16-1.17.93-1.87 2.02-1.83 1.14.04 1.85.85 1.84 1.59z"/><path d="m55.99 78.06c-1.11 2.4-2.12 4.66-3.19 6.89-2.34 4.9-5.16 9.57-8.51 14-.78 1.03-1.86 1.32-2.83.79s-1.16-1.55-.38-2.56c5.87-7.65 9.69-16.13 13.15-24.75.15-.37.28-.74.46-1.1.36-.71.97-1.16 1.9-1.11.98.06 1.55.58 1.76 1.39.59 2.25 1.14 4.5 1.75 6.74 1.07 3.94 2.64 7.71 4.85 11.27.28.45.61.91.48 1.47-.17.74-.67 1.24-1.51 1.39-.97.18-1.63-.26-2.1-.97-1.24-1.89-2.25-3.88-3.16-5.91-1.01-2.24-1.73-4.56-2.42-6.89-.05-.18-.13-.35-.25-.66z"/><path d="m0 45.67c1.28-11.28 5.72-21.25 16.45-28.42 2.07-1.38 4.31-2.54 6.77-3.34 1.23-.4 2.27-.02 2.67.91.36.84-.08 1.72-1.19 2.13-8.81 3.28-14.3 9.25-17.77 16.85-1.75 3.83-2.61 7.85-3.1 11.94-.08.69-.32 1.27-1.02 1.64-.63.33-1.27.32-1.89-.03-.66-.37-.9-.92-.92-1.68z"/><path d="m70.2 35.58c.98.02 1.56.51 1.92 1.26 1.13 2.35 1.81 4.81 2.27 7.32.77 4.21 1.03 8.45 1.37 12.7.31 3.82.57 7.65 1.65 11.38.32 1.1.74 2.18 1.3 3.21.67 1.22.43 2.15-.63 2.62-1.09.48-2.14.05-2.82-1.21-1.45-2.67-2.1-5.54-2.53-8.45-.71-4.8-.87-9.64-1.37-14.46-.42-4.08-.98-8.14-2.79-11.98-.57-1.21.27-2.37 1.63-2.39z"/></g></svg>