<?xml version="1.0" encoding="UTF-8"?>
<svg id="Capa_2" data-name="Capa 2" xmlns="http://www.w3.org/2000/svg" viewBox="0 0 134.24 104.92">
  <defs>
    <style>
      .cls-1 {
        fill: #fff;
      }
    </style>
  </defs>
  <g id="Capa_1-2" data-name="Capa 1">
    <path class="cls-1" d="M39.46,29.75c10.96,0,21.92,0,32.88,0,.47,0,.95,0,1.42,0,2.39-.08,3.34-1.03,3.34-3.41,.01-6.57,0-13.13,.02-19.7,0-.94,.07-1.89,.24-2.81,.33-1.77,1.39-2.98,3.09-3.56,1.71-.58,3.26-.22,4.6,1,.31,.29,.61,.59,.91,.89,15.33,15.33,30.66,30.66,45.99,45.99,3.06,3.06,3.06,5.55-.02,8.63-15.4,15.4-30.8,30.79-46.19,46.2-1.1,1.1-2.25,2.01-3.92,1.94-2.17-.09-4.03-1.57-4.45-3.69-.18-.92-.26-1.87-.26-2.81-.02-6.14-.01-12.28-.01-18.42,0-4.29-.52-4.82-4.77-4.82-22.11,0-44.21-.01-66.32,.02-1.98,0-3.61-.54-4.84-2.13-.89-1.14-1.14-2.5-1.14-3.87-.02-11.15-.05-22.3,0-33.44,.02-3.96,2.21-5.99,6.13-5.99,11.1,0,22.2,0,33.3,0Z"/>
  </g>
</svg>