<svg viewBox="0 0 599.44 154.39" xmlns="http://www.w3.org/2000/svg"><path d="m2.44 96.34c8.54 33.33 38.78 58.05 74.72 58.05 21.32 0 41.9-8.97 56.46-24.6l4.88-5.24v25.74l15.88-14.11v-56.22h-3.23s-50.97 0-50.97 0l-14.11 15.89h27.18l-3.11 4.44c-7.54 10.77-19.88 17.19-32.99 17.19-27.15 0-53.01-8-75.23-23.17.17.73.4 1.44.59 2.17" fill="#fac11d"/><g fill="#595958"><path d="m36.84 77.2c0-22.28 18.05-40.35 40.33-40.35 9.23 0 17.72 3.14 24.51 8.36l24.51-27.61c-13.8-11.37-31.1-17.6-49.02-17.6-42.55 0-77.17 34.63-77.17 77.2 0 2.49.57 9.2.57 9.24 15.78 11.78 33.67 19.63 52.68 23.19-9.94-7.35-16.41-19.12-16.41-32.44z"/><path d="m240.4 34.08c-2.07 0-3.99-.38-5.76-1.15-1.77-.76-3.31-1.8-4.6-3.12s-2.32-2.86-3.07-4.62-1.13-3.65-1.13-5.67.38-3.95 1.14-5.73c.76-1.77 1.8-3.31 3.11-4.62s2.85-2.34 4.62-3.09 3.67-1.13 5.69-1.13c1.32 0 2.6.17 3.84.52s2.39.83 3.46 1.46c1.06.62 2.04 1.37 2.93 2.25s1.65 1.85 2.27 2.91l-2.79 1.71c-.98-1.73-2.31-3.13-3.98-4.19s-3.58-1.59-5.73-1.59c-1.6 0-3.09.3-4.46.91s-2.56 1.43-3.57 2.46c-1.01 1.04-1.81 2.25-2.39 3.65s-.87 2.89-.87 4.46.28 3.06.85 4.44 1.36 2.59 2.37 3.63c1.01 1.03 2.2 1.85 3.57 2.45s2.86.89 4.46.89c2.35 0 4.39-.57 6.11-1.71s3.03-2.63 3.94-4.46l2.87 1.51c-.62 1.16-1.37 2.23-2.25 3.18-.88.96-1.87 1.78-2.97 2.46-1.1.69-2.3 1.22-3.59 1.59s-2.65.56-4.08.56z"/><path d="m275.22 34.08c-2.07 0-3.99-.38-5.76-1.15-1.77-.76-3.31-1.8-4.6-3.12s-2.31-2.86-3.05-4.62-1.11-3.65-1.11-5.67.38-3.91 1.14-5.67 1.81-3.3 3.13-4.62 2.86-2.36 4.62-3.12 3.63-1.15 5.63-1.15 3.91.38 5.67 1.15c1.76.76 3.3 1.8 4.62 3.12s2.35 2.86 3.11 4.62c.75 1.76 1.13 3.65 1.13 5.67s-.38 3.87-1.14 5.63-1.81 3.3-3.12 4.62c-1.32 1.32-2.86 2.37-4.62 3.14-1.76.78-3.63 1.16-5.63 1.16zm0-3.14c1.58 0 3.06-.3 4.44-.89s2.58-1.41 3.59-2.45c1.01-1.03 1.81-2.24 2.39-3.63.58-1.38.87-2.87.87-4.44s-.29-3.06-.87-4.44-1.38-2.59-2.39-3.63-2.21-1.86-3.59-2.46c-1.38-.61-2.87-.91-4.44-.91s-3.05.31-4.43.91c-1.37.61-2.57 1.43-3.59 2.46-1.02 1.04-1.82 2.25-2.41 3.63-.58 1.38-.87 2.87-.87 4.44s.29 3.06.87 4.44 1.38 2.59 2.39 3.63c1.01 1.03 2.2 1.85 3.57 2.45s2.86.89 4.46.89z"/><path d="m313.14 34.08c-2.07 0-3.99-.38-5.76-1.15-1.77-.76-3.31-1.8-4.6-3.12s-2.31-2.86-3.05-4.62-1.11-3.65-1.11-5.67.38-3.91 1.14-5.67 1.81-3.3 3.13-4.62 2.86-2.36 4.62-3.12 3.63-1.15 5.63-1.15 3.91.38 5.67 1.15c1.76.76 3.3 1.8 4.62 3.12s2.35 2.86 3.11 4.62c.75 1.76 1.13 3.65 1.13 5.67s-.38 3.87-1.14 5.63-1.81 3.3-3.12 4.62c-1.32 1.32-2.86 2.37-4.62 3.14-1.76.78-3.63 1.16-5.63 1.16zm0-3.14c1.58 0 3.06-.3 4.44-.89s2.58-1.41 3.59-2.45c1.01-1.03 1.81-2.24 2.39-3.63.58-1.38.87-2.87.87-4.44s-.29-3.06-.87-4.44-1.38-2.59-2.39-3.63-2.21-1.86-3.59-2.46c-1.38-.61-2.87-.91-4.44-.91s-3.05.31-4.43.91c-1.37.61-2.57 1.43-3.59 2.46-1.02 1.04-1.82 2.25-2.41 3.63-.58 1.38-.87 2.87-.87 4.44s.29 3.06.87 4.44 1.38 2.59 2.39 3.63c1.01 1.03 2.2 1.85 3.57 2.45s2.86.89 4.46.89z"/><path d="m337.25 5.35h10.67c1.55 0 2.97.25 4.25.76 1.28.5 2.37 1.2 3.28 2.1.91.89 1.61 1.94 2.12 3.14.5 1.2.76 2.5.76 3.9s-.25 2.7-.76 3.92c-.5 1.22-1.22 2.27-2.14 3.16s-2.01 1.59-3.28 2.1-2.68.76-4.23.76h-7.41v8.5h-3.26zm3.26 2.95v13.9h7.22c1.14 0 2.16-.18 3.07-.54s1.67-.85 2.31-1.47c.63-.62 1.12-1.35 1.46-2.19s.5-1.75.5-2.74-.17-1.9-.5-2.76c-.34-.85-.82-1.59-1.46-2.21-.63-.62-1.41-1.11-2.33-1.46s-1.95-.52-3.09-.52h-7.18z"/><path d="m367.84 5.35h18.83v3.07h-15.6v9.51h15.6v3.07h-15.6v9.59h15.6v3.11h-18.83z"/><path d="m396.48 5.35h11.26c1.42 0 2.74.23 3.94.7s2.23 1.11 3.09 1.92c.85.81 1.52 1.79 2 2.91.48 1.13.72 2.34.72 3.63 0 .91-.13 1.79-.39 2.66s-.64 1.67-1.15 2.41c-.5.74-1.12 1.39-1.84 1.96s-1.54 1.01-2.45 1.32l6.17 10.83h-3.65l-5.55-9.98h-8.93v9.98h-3.22zm3.22 2.99v12.42h7.76c1.09 0 2.05-.17 2.89-.52s1.55-.82 2.14-1.4c.58-.58 1.02-1.26 1.32-2.02s.45-1.56.45-2.39c0-.88-.16-1.69-.47-2.45-.31-.75-.76-1.4-1.34-1.94s-1.29-.96-2.14-1.26c-.84-.3-1.78-.45-2.81-.45h-7.8z"/><path d="m436.04 5.35h3.34l11.22 28.34h-3.38l-2.76-7.1h-13.51l-2.72 7.1h-3.42l11.22-28.34zm-3.88 18.17h11.1l-5.59-14.32z"/><path d="m461.81 8.3h-8.62v-2.95h20.5v2.95h-8.66v25.39h-3.22z"/><path d="m483.16 5.35h3.22v28.34h-3.22z"/><path d="m495.15 5.35h3.42l9.32 24.11 9.28-24.11h3.45l-11.1 28.34h-3.26l-11.1-28.34z"/><path d="m533.7 5.35h3.34l11.22 28.34h-3.38l-2.76-7.1h-13.51l-2.72 7.1h-3.42l11.22-28.34zm-3.88 18.17h11.1l-5.59-14.32z"/><path d="m174.66 82.8c0-23.38 17.59-40.22 40.22-40.22 14.69 0 27.45 7.72 34.32 19.41l-12.76 8.15c-4.61-8.15-11.37-13.19-21.56-13.19-14.91 0-25.74 11.26-25.74 25.85s10.83 25.63 25.42 25.63c10.83 0 18.34-6.11 22.52-14.69l13.3 6.97c-6.86 13.3-20.05 22.31-35.5 22.31-24.13 0-40.22-17.91-40.22-40.22z"/><path d="m254.12 90.62c0-20.8 15.23-32.71 31.1-32.71 8.26 0 15.55 3.32 20.16 8.79v-7.51h14.48v62.74h-14.48v-8.15c-4.61 5.9-12.12 9.44-20.38 9.44-15.12 0-30.89-12.01-30.89-32.6zm52.01-.21c0-10.72-7.94-19.3-18.77-19.3s-18.98 8.47-18.98 19.3 8.26 19.52 18.98 19.52 18.77-8.69 18.77-19.52z"/><path d="m326.08 90.62c0-18.34 14.26-32.71 32.6-32.71 14.05 0 25.09 8.04 29.92 19.41l-12.98 5.47c-2.9-6.86-9.12-11.26-16.84-11.26-10.62 0-18.55 8.47-18.55 19.09s7.94 18.98 18.66 18.98c8.15 0 14.05-4.83 16.94-11.69l12.98 5.58c-4.93 11.58-15.55 19.73-30.13 19.73-18.34 0-32.6-14.58-32.6-32.6z"/><path d="m408.66 114.54v36.25h-14.37v-91.59h14.37v8.37c4.4-5.9 11.8-9.65 20.38-9.65 15.77 0 30.89 11.9 30.89 32.71s-15.66 32.6-30.78 32.6c-8.58 0-16.09-3.11-20.48-8.69zm37-24.13c0-10.83-8.26-19.3-18.87-19.3s-18.66 8.58-18.66 19.3 7.83 19.52 18.66 19.52 18.87-8.58 18.87-19.52z"/><path d="m464.43 90.73c0-18.34 14.26-32.82 32.6-32.82s32.28 13.73 32.28 32.28v5.47h-51.05c2.04 8.9 9.01 14.8 19.3 14.8 8.15 0 14.37-4.29 17.37-11.05l11.9 6.86c-5.47 10.19-15.12 16.94-29.28 16.94-19.73 0-33.14-14.37-33.14-32.49zm14.58-7.18h35.6c-2.14-8.47-8.58-12.87-17.59-12.87s-15.44 5.15-18.02 12.87z"/><path d="m585.07 113.57c-4.61 6.01-12.01 9.65-20.48 9.65-15.12 0-30.89-12.01-30.89-32.6s15.23-32.71 31.1-32.71c8.26 0 15.55 3.65 20.16 9.33v-8.04h14.48v61.13c0 17.59-11.26 31.96-32.39 31.96-16.3 0-26.49-7.61-32.17-18.02l12.87-7.83c4.61 8.47 9.54 12.55 19.52 12.55 10.94 0 17.8-8.58 17.8-18.12v-7.29zm.64-23.16c0-10.72-7.94-19.3-18.77-19.3s-18.98 8.47-18.98 19.3 8.26 19.52 18.98 19.52 18.77-8.69 18.77-19.52z"/></g></svg>