<svg viewBox="0 0 100 100" xmlns="http://www.w3.org/2000/svg"><g fill="#585857"><path d="m98.53 0h-21.58c-.81 0-1.47.66-1.47 1.48v21.72c0 .82.66 1.48 1.47 1.48h21.58c.81 0 1.47-.66 1.47-1.48v-21.72c0-.82-.66-1.48-1.47-1.48z"/><path d="m20.66 39.36h12.5c2.44 0 4.62 1.14 6.02 2.92v-10.53c0-.81-.66-1.47-1.47-1.47h-21.58c-.81 0-1.47.66-1.47 1.47v10.52c1.41-1.77 3.58-2.91 6.01-2.91z"/><path d="m46.21 24.68h22.24c.81 0 1.47-.66 1.47-1.48v-21.72c0-.82-.66-1.48-1.47-1.48h-22.24c-.81 0-1.47.66-1.47 1.48v21.72c0 .82.66 1.48 1.47 1.48z"/><path d="m46.21 55.62h22.24c.81 0 1.47-.66 1.47-1.48v-22.39c0-.82-.66-1.48-1.47-1.48h-22.24c-.81 0-1.47.66-1.47 1.48v22.39c0 .82.66 1.48 1.47 1.48z"/><path d="m68.45 61.22h-10.34c2.07 1.4 3.43 3.77 3.43 6.46v11.76c0 2.69-1.36 5.06-3.43 6.46h10.34c.81 0 1.47-.66 1.47-1.47v-21.73c0-.81-.66-1.47-1.47-1.47z"/><path d="m98.53 61.21h-21.58c-.81 0-1.47.66-1.47 1.48v21.72c0 .82.66 1.48 1.47 1.48h21.58c.81 0 1.47-.66 1.47-1.48v-21.72c0-.82-.66-1.48-1.47-1.48z"/><path d="m98.53 30.27h-21.58c-.81 0-1.47.66-1.47 1.48v22.39c0 .82.66 1.48 1.47 1.48h21.58c.81 0 1.47-.66 1.47-1.48v-22.39c0-.82-.66-1.48-1.47-1.48z"/><path d="m16.13 24.68h21.58c.81 0 1.47-.66 1.47-1.48v-21.72c0-.82-.66-1.48-1.47-1.48h-21.58c-.81 0-1.47.66-1.47 1.48v21.72c0 .82.66 1.48 1.47 1.48z"/></g><path d="m33.16 67.67v-21.36h-12.5v21.36h-20.66v11.76h20.66v20.57h12.5v-20.57h11.58 9.1v-11.76h-9.1z" fill="#fcc31e"/></svg>