<svg fill="none" height="204" viewBox="0 0 268 204" width="268" xmlns="http://www.w3.org/2000/svg"><g fill="#fff"><path d="m86.8392 60.6399c5.3861 20.9779 24.4698 36.5358 47.1448 36.5358 13.452 0 26.435-5.6437 35.622-15.4851l3.082-3.2978v16.1977l10.021-8.8791v-35.3862h-2.033-32.16l-8.901 10.0026h17.149l-1.96 2.7932c-4.761 6.7777-12.545 10.8193-20.815 10.8193-17.133 0-33.447-5.0351-47.4626-14.5852.1042.4629.2555.9051.3702 1.368"/><path d="m108.535 48.5878c0-14.0234 11.392-25.394 25.444-25.394 5.824 0 11.179 1.9766 15.465 5.2639l15.465-17.3784c-8.703-7.15732-19.616-11.0793-30.925-11.0793-26.847 0-48.6881 21.7945-48.6881 48.5878 0 1.5709.3598 5.7945.3598 5.8153 9.9535 7.4174 21.2423 12.3537 33.2343 14.6008-6.267-4.6242-10.355-12.0364-10.355-20.4161z"/><path d="m41.4778 129.597c-1.3087 0-2.5184-.239-3.6342-.723-1.121-.478-2.0856-1.134-2.9042-1.966s-1.4599-1.8-1.9344-2.908-.7091-2.299-.7091-3.568.2398-2.486.7247-3.605c.4797-1.113 1.1367-2.086 1.9605-2.907.8238-.822 1.7936-1.472 2.9146-1.941 1.1158-.473 2.3151-.707 3.5873-.707.8342 0 1.6424.109 2.4245.328.7821.218 1.5121.525 2.1794.915.6674.39 1.2879.864 1.851 1.415s1.0428 1.165 1.4339 1.831l-1.7624 1.077c-.6204-1.093-1.4547-1.972-2.5079-2.638-1.0532-.665-2.2577-1.003-3.6133-1.003-1.0115 0-1.95.192-2.8156.572-.8655.385-1.6163.9-2.2524 1.55s-1.1367 1.42-1.5069 2.299c-.365.879-.5527 1.815-.5527 2.809 0 .993.1773 1.924.5371 2.798.3598.869.8551 1.633 1.4912 2.284.6361.65 1.3869 1.165 2.2524 1.539.8656.375 1.8041.562 2.8156.562 1.486 0 2.7687-.359 3.8584-1.077 1.0845-.717 1.9135-1.654 2.4871-2.808l1.8144.951c-.391.734-.8655 1.4-1.4182 2.003s-1.1783 1.118-1.8718 1.55-1.4495.765-2.2681 1.004c-.8186.234-1.6737.354-2.5705.354z"/><path d="m63.4445 129.597c-1.3087 0-2.5183-.239-3.6393-.723-1.1158-.479-2.0856-1.134-2.9042-1.966-.8186-.833-1.4547-1.8-1.924-2.908-.464-1.108-.6987-2.299-.6987-3.568s.2399-2.461.7248-3.569c.4797-1.107 1.1366-2.075 1.9709-2.907.8342-.832 1.804-1.488 2.9146-1.966 1.1106-.479 2.2942-.723 3.5507-.723 1.2566 0 2.4663.239 3.5768.723 1.1106.478 2.0804 1.134 2.9147 1.966.8342.832 1.486 1.8 1.9604 2.907.4745 1.108.7091 2.294.7091 3.569 0 1.274-.2398 2.434-.7247 3.542-.4797 1.108-1.1367 2.075-1.9709 2.908-.8342.832-1.804 1.487-2.9146 1.976s-2.2942.734-3.5508.734zm0-1.977c.9959 0 1.9292-.187 2.8052-.561.8707-.375 1.6268-.89 2.2629-1.54s1.1366-1.415 1.5068-2.284c.365-.873.5527-1.805.5527-2.798 0-.994-.1825-1.925-.5527-2.798-.3702-.874-.8707-1.634-1.5068-2.284s-1.3922-1.17-2.2629-1.55c-.876-.385-1.8093-.572-2.8052-.572-.9958 0-1.9291.192-2.7894.572-.8656.385-1.6216.9-2.2629 1.55-.6466.65-1.1523 1.415-1.5173 2.284-.365.868-.5527 1.804-.5527 2.798 0 .993.1825 1.925.5527 2.798.365.869.8707 1.634 1.5068 2.284.6362.65 1.387 1.165 2.2525 1.54.8655.374 1.804.561 2.8156.561z"/><path d="m87.3713 129.597c-1.3087 0-2.5184-.239-3.6394-.723-1.1158-.479-2.0856-1.134-2.9042-1.966-.8186-.833-1.4547-1.8-1.9239-2.908-.4641-1.108-.6987-2.299-.6987-3.568s.2398-2.461.7247-3.569c.4797-1.107 1.1367-2.075 1.9709-2.907.8343-.832 1.8041-1.488 2.9146-1.966 1.1106-.479 2.2942-.723 3.5508-.723s2.4662.239 3.5768.723c1.1106.478 2.0804 1.134 2.9146 1.966.8343.832 1.486 1.8 1.9605 2.907.4745 1.108.7091 2.294.7091 3.569 0 1.274-.2398 2.434-.7247 3.542-.4797 1.108-1.1367 2.075-1.9709 2.908-.8343.832-1.8041 1.487-2.9147 1.976s-2.2941.734-3.5507.734zm0-1.977c.9959 0 1.9292-.187 2.8051-.561.8708-.375 1.6268-.89 2.2629-1.54s1.1367-1.415 1.5069-2.284c.3649-.873.5527-1.805.5527-2.798 0-.994-.1825-1.925-.5527-2.798-.3702-.874-.8708-1.634-1.5069-2.284s-1.3921-1.17-2.2629-1.55c-.8759-.385-1.8092-.572-2.8051-.572s-1.9292.192-2.7895.572c-.8655.385-1.6215.9-2.2629 1.55-.6465.65-1.1523 1.415-1.5172 2.284-.365.868-.5527 1.804-.5527 2.798 0 .993.1825 1.925.5527 2.798.3701.869.8707 1.634 1.5068 2.284s1.3869 1.165 2.2524 1.54c.8656.374 1.8041.561 2.8156.561z"/><path d="m102.581 111.516h6.737c.98 0 1.871.156 2.68.479.808.317 1.496.759 2.07 1.321.573.562 1.016 1.222 1.334 1.982.318.759.475 1.576.475 2.455s-.162 1.701-.475 2.465c-.318.765-.766 1.431-1.345 1.993-.579.561-1.272 1.003-2.07 1.321-.798.317-1.689.478-2.669.478h-4.677v5.353h-2.06v-17.836zm2.06 1.857v8.749h4.557c.719 0 1.36-.114 1.934-.343s1.058-.536 1.455-.926c.401-.39.704-.853.917-1.378.214-.531.318-1.103.318-1.722s-.104-1.197-.318-1.738c-.213-.535-.516-1.003-.917-1.394-.402-.39-.892-.697-1.471-.915-.578-.218-1.23-.328-1.944-.328h-4.531z"/><path d="m121.878 111.516h11.877v1.93h-9.844v5.987h9.844v1.93h-9.844v6.033h9.844v1.956h-11.877z"/><path d="m139.95 111.516h7.101c.897 0 1.726.146 2.487.443.761.291 1.408.697 1.945 1.206.537.515.959 1.124 1.262 1.831.302.708.453 1.472.453 2.284 0 .572-.083 1.128-.245 1.675-.161.546-.406 1.05-.724 1.513-.319.463-.704.874-1.163 1.233s-.97.635-1.544.832l3.895 6.814h-2.304l-3.504-6.278h-5.631v6.278h-2.034v-17.836zm2.033 1.883v7.818h4.896c.688 0 1.293-.109 1.825-.327.532-.219.98-.515 1.345-.879.365-.365.647-.791.834-1.27.188-.478.282-.983.282-1.503 0-.551-.099-1.066-.292-1.54-.198-.473-.475-.879-.845-1.222-.365-.343-.818-.608-1.345-.796-.532-.187-1.121-.281-1.773-.281h-4.922z"/><path d="m164.909 111.516h2.107l7.075 17.836h-2.133l-1.741-4.468h-8.525l-1.715 4.468h-2.154l7.076-17.836zm-2.451 11.433h7.003l-3.525-9.014z"/><path d="m181.167 113.373h-5.438v-1.857h12.93v1.857h-5.459v15.979h-2.033z"/><path d="m194.64 111.516h2.033v17.836h-2.033z"/><path d="m202.205 111.516h2.153l5.877 15.173 5.855-15.173h2.179l-7.002 17.836h-2.06z"/><path d="m226.523 111.516h2.107l7.075 17.836h-2.132l-1.742-4.468h-8.525l-1.715 4.468h-2.153l7.075-17.836zm-2.45 11.433h7.002l-3.524-9.014z"/><path d="m0 160.26c0-14.715 11.0954-25.311 25.3714-25.311 9.2705 0 17.3209 4.858 21.6537 12.219l-8.0504 5.128c-2.9094-5.128-7.1745-8.301-13.5981-8.301-9.4061 0-16.23644 7.089-16.23644 16.27s6.83554 16.13 16.03824 16.13c6.8356 0 11.5699-3.849 14.2082-9.248l8.3893 4.385c-4.3328 8.369-12.6543 14.039-22.3941 14.039-15.2249 0-25.371372-11.272-25.371372-25.311z"/><path d="m50.1377 165.186c0-13.092 9.6094-20.588 19.6203-20.588 5.2088 0 9.8128 2.091 12.7222 5.535v-4.723h9.1349v39.485h-9.1349v-5.129c-2.9094 3.714-7.6438 5.94-12.8526 5.94-9.5416 0-19.4847-7.558-19.4847-20.52zm32.817-.135c0-6.752-5.0055-12.151-11.8411-12.151-6.8355 0-11.9765 5.331-11.9765 12.151 0 6.819 5.2088 12.286 11.9765 12.286 6.7678 0 11.8411-5.467 11.8411-12.286z"/><path d="m95.5361 165.186c0-11.542 8.9999-20.588 20.5689-20.588 8.864 0 15.835 5.061 18.875 12.219l-8.186 3.443c-1.825-4.322-5.751-7.09-10.621-7.09-6.7 0-11.705 5.332-11.705 12.016s5.005 11.948 11.773 11.948c5.141 0 8.864-3.038 10.689-7.355l8.186 3.511c-3.113 7.287-9.813 12.421-19.011 12.421-11.569 0-20.5689-9.18-20.5689-20.52z"/><path d="m147.635 180.239v22.814h-9.068v-57.643h9.068v5.264c2.773-3.714 7.44-6.076 12.857-6.076 9.949 0 19.485 7.49 19.485 20.588 0 13.097-9.881 20.52-19.417 20.52-5.412 0-10.146-1.956-12.925-5.467zm23.343-15.188c0-6.82-5.209-12.151-11.909-12.151s-11.773 5.399-11.773 12.151c0 6.751 4.937 12.286 11.773 12.286 6.835 0 11.909-5.399 11.909-12.286z"/><path d="m182.819 165.254c0-11.543 8.999-20.656 20.569-20.656s20.366 8.64 20.366 20.317v3.444h-32.207c1.288 5.602 5.683 9.316 12.18 9.316 5.141 0 9.067-2.7 10.96-6.949l7.508 4.317c-3.452 6.413-9.542 10.663-18.473 10.663-12.451 0-20.909-9.045-20.909-20.452zm9.202-4.521h22.462c-1.35-5.331-5.412-8.098-11.095-8.098s-9.745 3.24-11.367 8.098z"/><path d="m258.933 179.631c-2.91 3.781-7.576 6.075-12.926 6.075-9.541 0-19.485-7.558-19.485-20.52s9.61-20.588 19.621-20.588c5.209 0 9.813 2.294 12.722 5.873v-5.061h9.135v38.476c0 11.068-7.107 20.114-20.434 20.114-10.282 0-16.711-4.791-20.298-11.339l8.118-4.926c2.91 5.331 6.022 7.896 12.316 7.896 6.903 0 11.231-5.4 11.231-11.407v-4.588zm.406-14.58c0-6.752-5.005-12.151-11.841-12.151-6.835 0-11.976 5.331-11.976 12.151 0 6.819 5.209 12.286 11.976 12.286 6.768 0 11.841-5.467 11.841-12.286z"/></g></svg>