<svg viewBox="0 0 100 100" xmlns="http://www.w3.org/2000/svg"><g fill="#fff"><path d="m40.61 100c-7.85-1.39-14.8-5.16-22.21-7.7-4.07-1.4-8.04-3.04-12.06-4.57-5.41-2.06-7.83-7.83-5.39-12.9 2.95-6.11 5.89-12.23 8.85-18.33 1.64-3.38 4.7-4.35 8.19-2.63 2.18 1.08 4.27 2.31 6.51 3.25 6.61 2.78 13.53 3.61 20.7 2.71 5.42-.68 10.41-2.45 15.11-5.09 1.32-.74 2.82-1.33 4.32-1.63 2.63-.53 4.85.44 6.21 2.62 3.02 4.83 5.89 9.74 8.82 14.63 1.1 1.83 2.21 3.67 3.28 5.52 2.47 4.27.95 9.12-3.75 11.04-10.11 4.13-20.29 8.11-30.47 12.09-1.33.52-2.82.67-4.23.99h-3.89z"/><path d="m39.92 52.41c-15.21-.07-27.46-11.78-27.42-26.22.05-14.49 12.37-26.22 27.49-26.19 15.14.03 27.47 11.83 27.44 26.24-.03 14.45-12.41 26.23-27.5 26.16z"/><path d="m83.73 36.98h-10.09v-6.37h10.09v-11.3h6.18v11.3h10.09v6.37h-10.09v11.3h-6.18z"/></g></svg>