<svg viewBox="0 0 71.86 79.8" xmlns="http://www.w3.org/2000/svg"><g fill="#848585"><path d="m34.69 79.8c-6.71-1.11-12.64-4.12-18.98-6.15-3.47-1.11-6.87-2.43-10.3-3.65-4.63-1.64-6.69-6.25-4.6-10.29 2.52-4.88 5.03-9.76 7.56-14.63 1.4-2.7 4.02-3.47 7-2.1 1.86.86 3.65 1.85 5.56 2.6 5.65 2.22 11.56 2.88 17.68 2.16 4.63-.54 8.89-1.95 12.91-4.07 1.13-.59 2.41-1.06 3.69-1.3 2.25-.42 4.15.35 5.31 2.09 2.58 3.85 5.03 7.78 7.53 11.67.94 1.46 1.89 2.92 2.8 4.4 2.11 3.41.81 7.28-3.2 8.81-8.64 3.3-17.33 6.47-26.03 9.65-1.14.41-2.41.53-3.61.79h-3.32z"/><path d="m34.11 41.82c-12.99-.05-23.46-9.4-23.42-20.93.03-11.55 10.55-20.92 23.47-20.89 12.93.03 23.47 9.44 23.44 20.94-.03 11.54-10.6 20.93-23.49 20.88z"/></g></svg>