<svg viewBox="0 0 100 16.88" xmlns="http://www.w3.org/2000/svg"><g fill="#595958"><path d="m15.63 1.68-4.97 6.01v.1l7.89-.96v3.27l-7.89-.91v.14l5.02 5.77-3.29 1.73-3.19-6.73h-.11l-3.34 6.78-2.98-1.73 4.97-5.87v-.14l-7.74.96v-3.27l7.69.91v-.09l-4.92-5.92 3.19-1.68 3.24 6.73h.11l3.18-6.78z"/><path d="m42.97 1.68-4.97 6.01v.1l7.89-.96v3.27l-7.89-.91v.14l5.02 5.77-3.29 1.73-3.19-6.73h-.11l-3.34 6.78-2.98-1.73 4.97-5.87v-.14l-7.74.96v-3.27l7.69.91v-.09l-4.92-5.92 3.19-1.68 3.24 6.73h.11l3.19-6.78 3.14 1.68z"/><path d="m69.74 1.68-4.97 6.01v.1l7.89-.96v3.27l-7.89-.91v.14l5.02 5.77-3.29 1.73-3.19-6.73h-.11l-3.34 6.78-2.98-1.73 4.97-5.87v-.14l-7.74.96v-3.27l7.69.91v-.09l-4.92-5.92 3.19-1.68 3.24 6.73h.11l3.19-6.78 3.14 1.68z"/><path d="m97.08 1.68-4.97 6.01v.1l7.89-.96v3.27l-7.89-.91v.14l5.02 5.77-3.29 1.73-3.19-6.73h-.11l-3.34 6.78-2.98-1.73 4.97-5.87v-.14l-7.74.96v-3.27l7.69.91v-.09l-4.92-5.92 3.19-1.68 3.24 6.73h.11l3.19-6.78 3.14 1.68z"/></g></svg>